<svg xmlns="http://www.w3.org/2000/svg" viewBox="0 0 500 500"><g id="freepik--background-complete--inject-129"><path d="M370.71,302.42a31.19,31.19,0,0,0,32.78,0,31.16,31.16,0,1,0-32.78,0Z" style="fill:#ebebeb"></path><path d="M377.62,272.35a9.49,9.49,0,1,0,9.48-9.49A9.48,9.48,0,0,0,377.62,272.35Z" style="fill:#fff"></path><path d="M370.72,298.51v3.91a31.19,31.19,0,0,0,32.78,0v-3.9a16.39,16.39,0,1,0-32.77,0Z" style="fill:#fff"></path><circle cx="101.37" cy="119.34" r="19.64" transform="translate(-47.23 168.67) rotate(-68.02)" style="fill:#ebebeb"></circle><path d="M111.39,121.79c-3,6-10,9.53-10,9.53s-7.06-3.55-10-9.53c-2.47-5-.91-10.39,3-11.56,5.59-1.69,7,8,7,8s1.43-9.73,7-8C112.3,111.4,113.86,116.8,111.39,121.79Z" style="fill:#fff"></path><path d="M63.26,206.27A40.16,40.16,0,0,0,61,210.85,44.18,44.18,0,0,0,59.73,216v5.33c.31,1.91.56,3.82,1,5.71a55.5,55.5,0,0,0,8.75,19.86,130.26,130.26,0,0,0,36,36.08,56.17,56.17,0,0,0,20.14,8.86c1.82.37,3.67.61,5.51.91h5.53c1.06-.2,2.12-.37,3.17-.62a13,13,0,0,0,6.35-3.19c-.14-.17-.24-.3-.35-.41Q134.2,277,122.66,265.41a1.14,1.14,0,0,0-1.31-.23,11.16,11.16,0,0,1-11-2.4,225.73,225.73,0,0,1-20.59-20.56,11.17,11.17,0,0,1-2.43-11,1.27,1.27,0,0,0-.37-1.46Q75.51,218.4,64.13,207C63.94,206.83,63.71,206.66,63.26,206.27Z" style="fill:#ebebeb"></path><path d="M150.85,284.2c.15-.14.38-.32.58-.53q4-4,8-8c1.93-1.94,1.94-3.9,0-5.84l-17.39-17.36c-2-2-3.95-2-5.93,0-2.28,2.28-4.55,4.57-6.84,6.84-.59.6-1.24,1.14-1.78,1.63Z" style="fill:#ebebeb"></path><path d="M68.22,201.74c7.78,7.77,15.53,15.5,23,23,3-2.83,6-5.65,9-8.54,1.76-1.72,1.68-3.79-.09-5.56Q91.35,201.8,82.53,193c-1.85-1.84-3.85-1.83-5.7,0q-4.08,4.08-8.15,8.18C68.5,201.4,68.34,201.6,68.22,201.74Z" style="fill:#ebebeb"></path><g id="freepik--u5Zjqx--inject-129"><path d="M440.27,71.63l-4.34,4.31-2.46,2.48c-11.67-11.33-25.56-17.37-41.83-17.37s-30.16,6-41.91,17.41c-.78-.81-1.55-1.64-2.35-2.45-1.42-1.44-2.85-2.87-4.28-4.31l-.13-.07v-.11l.32-.26c1.82-1.62,3.6-3.3,5.49-4.86a67.75,67.75,0,0,1,29.53-13.75c2.78-.51,5.61-.78,8.42-1.12.95-.12,7.17-.14,7.36-.13,1.91.15,3.83.23,5.73.44a65,65,0,0,1,15.45,3.68,68,68,0,0,1,10.44,4.89,65.88,65.88,0,0,1,10,7c1.56,1.34,3.06,2.75,4.58,4.13Z" style="fill:#ebebeb"></path><path d="M363.51,92.06l-6.87-6.81a48.34,48.34,0,0,1,27.93-14c16.24-2.2,30.18,2.73,42,13.92L419.68,92A39.13,39.13,0,0,0,391.6,80.41C380.66,80.42,371.33,84.49,363.51,92.06Z" style="fill:#ebebeb"></path><path d="M412.82,98.91,406,105.74a20.28,20.28,0,0,0-28.77,0L370.4,99A29.81,29.81,0,0,1,412.82,98.91Z" style="fill:#ebebeb"></path><path d="M397.78,111.94a6.17,6.17,0,1,1-6.17-6.17A6.17,6.17,0,0,1,397.78,111.94Z" style="fill:#ebebeb"></path></g><path d="M392.78,301.45a29.86,29.86,0,0,0-.91,13c1.36,9.12,8.23,16.35,9.72,25.33-.19,1.08-.41,2.17-.7,3.25,0,0,0,.05,0,.06s0,0,0,0h0v0a.14.14,0,0,0,.08.1,3,3,0,0,0,.17-.37c.12-.23.21-.45.31-.68s.26-.64.38-1c0,0,.08-.14.08-.19,3.35-9.23.27-19.46-1.29-28.83-.89-5.35-.51-10.75-1.31-16.08-.2-1.28-.18-3.69-2-3.2C395.21,293.49,393.3,299.73,392.78,301.45Z" style="fill:#ebebeb"></path><path d="M394.13,309.32c-.58,11.1,9.66,20.81,7.28,31.89-.08.32-.15.62-.24.93l-.18.64h0l-.09.26s0,.05,0,.06,0,0,0,0h0v0a.14.14,0,0,0,.08.1h0a.09.09,0,0,0,.09-.07c.13-.32.24-.66.35-1a14.65,14.65,0,0,0,.56-2.45h0a35.35,35.35,0,0,0-.23-14.86c-1.27-6.3-2.87-12.41-4-18.78-.14-.78-.15-3.88-1.41-3.47C394.74,303.16,394.2,308,394.13,309.32Zm.54-1.65c.1-.63.91-4.8,1.94-4.36.62.25.7,3.41.8,3.86l1.1,5.14c.79,3.61,1.6,7.21,2.38,10.82a47.71,47.71,0,0,1,1.23,13.35C401.55,326.76,393.06,317.74,394.67,307.67Z" style="fill:#fff"></path><path d="M390.12,408c0,.14.12.35.32.22,8.41-5.41,18.9-1,27.6-5.84a44.31,44.31,0,0,0,9.35-7.47,35.79,35.79,0,0,0,5.7-6.77c.2-.34,1.27-1.71,1.1-2.4-1.34-5.18-14.81,3.59-17.06,4.83-8.81,4.8-16.87,9.19-24.58,15.35-.81.63-1.61,1.29-2.41,2A.12.12,0,0,0,390.12,408Z" style="fill:#ebebeb"></path><path d="M390.12,408l.92-.58c5.78-2.77,12.21-3.75,18.43-5.34a34.58,34.58,0,0,0,16.29-8.77c.82-.8,4.24-3.88,3.23-5.43-.91-1.4-4.35,1.29-5.18,1.77-6.26,3.5-12.38,7.06-18.9,10.08-4.17,1.93-8.4,3.85-12.36,6.19-.81.63-1.61,1.29-2.41,2A.12.12,0,0,0,390.12,408Zm3.93-2.35c4.6-2.57,9.43-4.71,14.22-7q4.94-2.32,9.65-5.06c1.72-1,3.44-2,5.17-3,.88-.5,1.74-1,2.62-1.45.44-.25,1.88-1.08,2.25-.41,1,1.81-8.67,11-20.65,13.34A74.77,74.77,0,0,0,394.05,405.67Z" style="fill:#fff"></path><path d="M404.11,392.09a.08.08,0,0,0,0,.12s.08,0,.13,0l.52-.51c.64-.63,1.25-1.27,1.85-1.91l.33-.35a.19.19,0,0,0,.09,0c6.72-6.87,16.9-9,22.63-16.93a38.61,38.61,0,0,0,5.39-11.82c.52-1.8,3.11-7.3.84-8.73-1.76-1.1-4.52,1.3-5.67,2.33-3.66,3.25-6.26,7.79-8.8,11.91s-4.78,8.18-7.15,12.28a79,79,0,0,1-7.52,10.5C405.89,390,405,391,404.11,392.09Z" style="fill:#ebebeb"></path><path d="M404.11,392.09a.08.08,0,0,0,0,.12c.55-.58,1.1-1.16,1.66-1.72l-1,1.2c.64-.63,1.25-1.27,1.85-1.91l.89-1a107.76,107.76,0,0,1,12.38-10.27,22.72,22.72,0,0,0,5.58-5.53c2.82-4,7.18-13.54,6.34-15s-2.6,1.59-3.08,2.25c-3.91,5.34-7.09,11.13-11.29,16.26-2.83,3.45-5.7,6.87-8.56,10.29-.72.7-1.43,1.41-2.12,2.14C405.89,390,405,391,404.11,392.09Zm27.06-33.76c.74.31-.39,2.86-.68,3.54a105.52,105.52,0,0,1-4.72,9.61c-1.85,3.29-4.5,5.45-7.53,7.58a78.92,78.92,0,0,0-7.27,5.77c2.85-3.22,5.66-6.47,8.28-9.84,2.18-2.81,4.08-5.81,6-8.79,1-1.5,1.93-3,2.95-4.43.27-.39,2.31-3.71,3-3.44" style="fill:#fff"></path><path d="M354,434.48a.07.07,0,0,0,.07.07.07.07,0,0,0,.09-.06c0-.22.08-.43.13-.64q.23-1.17.39-2.34c0-.14,0-.28.07-.43a.18.18,0,0,0,0-.07c1.48-8.44,7.91-15.12,8.11-23.87a34.21,34.21,0,0,0-2-11.41c-.52-1.59-1.39-6.94-3.77-6.85-1.86.08-2.68,3.24-3,4.57-1.06,4.24-.67,8.89-.47,13.2s.61,8.43.93,12.64a70.17,70.17,0,0,1-.24,11.52C354.29,432,354.17,433.25,354,434.48Z" style="fill:#ebebeb"></path><path d="M354,434.48a.07.07,0,0,0,.07.07c.11-.7.23-1.4.35-2.1,0,.47-.09.94-.13,1.4q.23-1.17.39-2.34c0-.4.09-.8.15-1.2a96.4,96.4,0,0,1,3.93-13.8,20.16,20.16,0,0,0,1.32-6.88c0-4.39-1.54-13.58-2.89-14.22s-1.1,2.49-1.13,3.22c-.19,5.89.4,11.76-.11,17.65-.34,4-.73,7.93-1.11,11.89q-.27,1.32-.48,2.64C354.29,432,354.17,433.25,354,434.48Zm1.39-8.81c.47-3.8.9-7.61,1.14-11.42.18-3.16.07-6.32,0-9.49-.05-1.58-.09-3.16-.07-4.74,0-.43-.17-3.9.46-4s1.16,2.3,1.28,2.94a94.52,94.52,0,0,1,1.37,9.46,20.88,20.88,0,0,1-1.72,9.38A72.46,72.46,0,0,0,355.43,425.67Z" style="fill:#fff"></path><path d="M353.07,441.48a1.23,1.23,0,0,0,.65-.23c8.6-3.29,18-3.43,26.65-6.72a25.16,25.16,0,0,0,10.05-6.62c1.15-1.31,5.15-5.82,4.26-7.91-2.63-6.28-31.65,13.53-41.2,20.65a1.77,1.77,0,0,0-.43.3C352.76,441.22,352.8,441.46,353.07,441.48Z" style="fill:#ebebeb"></path><path d="M353.07,441.48l1.92-1.05c2.09-.84,4.2-1.64,6.35-2.32,3.4-1.07,6.91-1.71,10.37-2.58a32.9,32.9,0,0,0,14.5-7.75c.89-.82,3.55-3,3-4.54s-2.7,0-3.47.35c-10.91,5.21-21.52,11.19-32.11,17.07l-.55.29C352.76,441.22,352.8,441.46,353.07,441.48Zm5.06-2.77q6.22-3.39,12.45-6.72c3.26-1.74,6.51-3.46,9.78-5.17,1.62-.85,3.22-1.72,4.85-2.54.65-.32,3.13-1.59,3.37-.69s-1.49,2.57-1.8,2.89c-4.9,5-11.19,7.64-17.93,9.14A78.75,78.75,0,0,0,358.13,438.71Z" style="fill:#fff"></path><path d="M394.27,368.81a.4.4,0,0,0,0,.33.43.43,0,0,0,.38.27.44.44,0,0,0,.25,0,.16.16,0,0,0,.15-.05c4.06-4,10.26-7.67,14.43-11.48a44.07,44.07,0,0,0,8.06-10.16,59.64,59.64,0,0,0,5.94-13.21c.66-2.2,2.55-7.41.77-9.57-3.68-4.45-11.1,11.75-12.16,13.56C406.09,348.56,400.13,358.66,394.27,368.81Z" style="fill:#ebebeb"></path><path d="M394.23,369.14a.43.43,0,0,0,.38.27l.71-1c1.59-1.87,3.18-3.73,4.88-5.51,2.75-2.91,5.9-5.41,8.56-8.4,4.63-5.21,13.32-21.8,10.83-23.45-1.31-.86-2.92,2.55-3.39,3.36-1.87,3.2-3.32,6.6-5.24,9.78-2,3.34-4.19,6.55-6.37,9.77-3.37,4.94-6.76,9.87-10.08,14.86C394.42,368.91,394.33,369,394.23,369.14Zm3.34-4c3-4.37,5.95-8.77,8.92-13.16,2.05-3,4.08-6.1,5.9-9.28,1-1.78,1.93-3.62,2.85-5.45.44-.89.89-1.79,1.4-2.66s2.06-3.84,2.79-2.7-1.47,6-2,7.13c-.85,1.84-1.72,3.67-2.65,5.48a48,48,0,0,1-6.67,9.95c-2.69,3-5.83,5.49-8.54,8.43C398.91,363.61,398.23,364.36,397.57,365.12Z" style="fill:#fff"></path><path d="M345.58,376.89c7.47,8.12,19.53,10.37,23.92,24.6,0,.06.09.05.11,0a0,0,0,0,0,0-.05c-.27-1.44-.59-2.87-1-4.29a62.12,62.12,0,0,0-10.32-21.33A47,47,0,0,0,348.24,366c-2-1.39-6.23-4.95-8.69-4.4C334.25,362.75,344.22,375.42,345.58,376.89Z" style="fill:#ebebeb"></path><path d="M346,371.89c3,5.9,9,9.73,13.54,14.32a53.72,53.72,0,0,1,8.27,10.46c.62,1.59,1.2,3.2,1.77,4.84a0,0,0,0,0,0-.05c-.27-1.44-.59-2.87-1-4.29l-.13-.23a65.39,65.39,0,0,0-6.2-12.41A68.39,68.39,0,0,0,350,369.93c-.82-.75-3.53-4-4.94-3.14S345.61,371.07,346,371.89Zm-.51-4.58c1-.39,5.83,4.37,7.7,6.32a67.91,67.91,0,0,1,10.41,13.94,66,66,0,0,1,3.28,6.78,54.7,54.7,0,0,0-5.41-6.76c-4.11-4.41-9.27-7.95-13-12.69a19.12,19.12,0,0,1-2.47-4C345.77,370.3,344.59,367.66,345.52,367.31Z" style="fill:#fff"></path><path d="M354.85,332.59a50.28,50.28,0,0,0-.08,12,49.71,49.71,0,0,0,7.81,21.53c.07.11.14.24.22.35.07.38.14.76.23,1.13l.06.26,0,.05h0a.1.1,0,0,0,.17-.08c0-.47,0-.94,0-1.4.15-9.62,1.93-19,.64-28.66-.29-2.11-1.66-15.87-6.46-13.52C355.24,325.31,355.09,330.58,354.85,332.59Z" style="fill:#ebebeb"></path><path d="M356.77,334.53c-.34,5.92,1.22,12.28,2.44,18.06a133.43,133.43,0,0,0,3.37,13.48c.1.36.23.73.34,1.08,0,.13.07.27.11.4a2.81,2.81,0,0,0,.08.31h0a.1.1,0,0,0,.17-.08c0-.47,0-.94,0-1.4s-.19-.71-.29-1.06a112.31,112.31,0,0,1-.59-15.8c0-2.86,0-5.71-.27-8.56a38.16,38.16,0,0,0-1.22-8.33c-.37-1.15-1.15-3.43-2.77-2.58C356.8,330.76,356.84,333.27,356.77,334.53Zm3.53-2c1,3.12,1.17,6.78,1.39,10s.18,6.26.15,9.38c0,3.31-.07,6.67.23,10-1.13-4.17-2.23-8.35-3-12.63-.64-3.34-1.2-6.71-1.59-10.09a26.31,26.31,0,0,1-.17-5.25,14.6,14.6,0,0,1,.26-1.86C358,330.17,359.84,331.12,360.3,332.52Z" style="fill:#fff"></path><path d="M413.89,307.62c0,.15-.06.3-.09.46a.27.27,0,0,0,.35.31.28.28,0,0,0,.21-.22c.06-.27.13-.56.2-.83h0l.15-.67a12.52,12.52,0,0,1,.68-1.1c2.54-3.85,7-7.12,10-10.41a61.07,61.07,0,0,0,7.4-9.62,29.75,29.75,0,0,0,4.3-11.48c.14-1.1.66-3.89-.72-4.58-1.74-.88-4.4,2.46-5.34,3.33a49.63,49.63,0,0,0-8.32,10.33C418,290.71,415.62,299,413.89,307.62Z" style="fill:#ebebeb"></path><path d="M414.67,305.7a15.76,15.76,0,0,0-.78,1.92c0,.15-.06.3-.09.46a.27.27,0,0,0,.35.31c0-.11.07-.22.11-.33s.19-.48.3-.72h0c.26-.6.53-1.18.83-1.77a39.07,39.07,0,0,1,3.73-5.94c2.45-3.27,5-6.44,7.34-9.8,1.17-1.69,10.13-14.65,6.61-15.89-.67-.24-1.31.65-1.66,1a26.81,26.81,0,0,0-3.22,4.34c-2.25,3.51-4.37,7.12-6.36,10.78A114.19,114.19,0,0,0,414.67,305.7Zm6.41-13.39q2.57-4.86,5.42-9.56c.92-1.52,1.84-3.07,2.85-4.54.5-.74,3-4,3.71-3.59,1,.63-1.39,5.75-2.12,7.13-.84,1.58-1.75,3.11-2.7,4.61-1.91,3-4,5.93-6.2,8.77-1.92,2.52-4.21,5.2-6,8.1A116,116,0,0,1,421.08,292.31Z" style="fill:#fff"></path><path d="M383.09,352.73c.05.15.11.29.15.44a.28.28,0,0,0,.47.1.27.27,0,0,0,.07-.3l-.25-.82h0l-.2-.67c0-.42,0-.85,0-1.28.27-4.61,2.45-9.65,3.39-14a60.28,60.28,0,0,0,1.58-12,29.89,29.89,0,0,0-2.05-12.09c-.43-1-1.38-3.69-2.92-3.6-1.95.11-2.57,4.34-2.94,5.56a50.18,50.18,0,0,0-2,13.11C378.17,336,380.26,344.39,383.09,352.73Z" style="fill:#ebebeb"></path><path d="M382.81,350.68a17.42,17.42,0,0,0,.28,2.05c.05.15.11.29.15.44a.28.28,0,0,0,.47.1c0-.11,0-.23-.07-.34s-.08-.52-.11-.78h0c-.08-.65-.13-1.3-.17-1.95a39.61,39.61,0,0,1,.25-7c.47-4.06,1.1-8.09,1.43-12.17.16-2,1.41-17.75-2.26-17-.69.12-.8,1.22-.93,1.71a27,27,0,0,0-.6,5.37c-.18,4.17-.2,8.35-.1,12.52A115.41,115.41,0,0,0,382.81,350.68Zm-1.18-14.8c-.15-3.66-.17-7.32-.11-11,0-1.79.06-3.58.19-5.37.06-.88.59-5,1.4-5,1.2,0,1.69,5.67,1.75,7.23.07,1.78.05,3.56,0,5.34-.13,3.58-.51,7.15-1,10.7a100.55,100.55,0,0,0-1.13,10A117.23,117.23,0,0,1,381.63,335.88Z" style="fill:#fff"></path><path d="M362.11,359.18a222.63,222.63,0,0,0,5.07,24.68c1.7,6.29,3.42,12.68,3.66,19.22.29,7.83-2,16.52-5.94,24q3.44-3.84,6.81-7.8c4.58-5.37,9.13-10.88,12.37-17.18.32-.63.62-1.26.91-1.89a.2.2,0,0,1,0-.15,85.15,85.15,0,0,0,1.64-25.34,70.08,70.08,0,0,0-5.52-12.68c-2.3-4.17-4.49-8.23-5.71-12.86-.07-.27.3-.43.4-.16,2.34,6.13,7.15,12.1,10,18.46-.16-1.05-.33-2.1-.52-3.16-1.84-10.06-5.33-20.17-1.64-30.23.12-.34.6-.1.5.22-3.47,11.21,2,23.55,3.6,34.69,1.21,8.28,1.61,17.2-.39,25.45A135.72,135.72,0,0,0,391,380.55c6.33-28.24,13.66-56.33,27.39-82,.13-.25.54-.08.41.18-14.06,27.85-19.63,58.12-26.95,88.14-.08.34-.17.68-.26,1a56,56,0,0,1,8.83-10.67c.16-.16.42,0,.27.22-4,5.16-7.1,10.8-10.73,16.19a58.3,58.3,0,0,1-5.25,12.09,94.84,94.84,0,0,1-9.34,12.78c5.73-4.81,11.52-9.55,16.91-14.79a257.08,257.08,0,0,0,22.93-25.22c.1-.13.29,0,.19.16a214.27,214.27,0,0,1-22.81,27.22c-7.14,7.1-14.78,14.34-23.35,19.78-8.19,9.43-16.94,18.9-27.3,25.8a.45.45,0,0,1-.53-.73c1.9-1.69,3.76-3.41,5.6-5.15,1.78-4,4.26-7.65,5.85-11.78a65.64,65.64,0,0,0,3.8-15c.05-.38.6-.28.58.09-.43,7-2,15.68-5.76,22.4q3.93-3.88,7.7-7.9c6.73-10.27,11.11-22.48,9.64-34.77-.76-6.32-2.57-12.42-4.05-18.59a137.2,137.2,0,0,1-3.1-20.76A.24.24,0,0,1,362.11,359.18Z" style="fill:#ebebeb"></path><path d="M152.18,319.36c1.45,4,1.16,8.93,1,13.1a104.45,104.45,0,0,1-1.66,14.22c-.79,4.39-1.8,8.72-2.88,13l0,.12-.21.85c0,.35-.09.7-.15,1.06a.21.21,0,0,1-.19.18.18.18,0,0,1-.22-.2c0-.19.05-.39.06-.57.7-8.09-4-15.47-4.25-23.49-.15-4.39.9-8.79,1.72-13.08.45-2.37.57-5.45,1.49-7.68.25-.6.3-1.23,1-1.55C149.85,314.39,151.68,318,152.18,319.36Z" style="fill:#ebebeb"></path><path d="M150.27,322.36c-1.27-1.05-2,1.85-2.27,2.65-1.66,5.34-2.6,11.7-1.64,17.22,1,6.08,2.14,12.16,1.69,18.31l-.18.61c0,.18,0,.38-.06.57a.18.18,0,0,0,.22.2l.06-.36c.18-.57.34-1.15.49-1.73l0-.12a115.61,115.61,0,0,0,2.12-12.61,81.29,81.29,0,0,0,.95-17.83,41.21,41.21,0,0,0-.54-4.29C151,324.27,150.89,322.87,150.27,322.36ZM151,326c.23,1.5.38,3,.47,4.54a83.09,83.09,0,0,1-.92,15.67,116.24,116.24,0,0,1-2.22,13.42,47.51,47.51,0,0,0-.45-10.51c-.37-2.63-.92-5.21-1.31-7.83a29.41,29.41,0,0,1,.32-8.83,37.21,37.21,0,0,1,1.77-8.17c.2-.52.79-1.68,1.24-1.6C150.68,322.79,150.9,325.37,151,326Z" style="fill:#fff"></path><path d="M115.86,381.14s0,0,0,0" style="fill:#ebebeb"></path><path d="M148.25,437a.18.18,0,0,1,.09.23h0a.2.2,0,0,1-.17.16.23.23,0,0,1-.16,0c-4.95-2.5-9.68-6.48-15.41-6.77-4.49-.24-8.34.32-12.6-1.52a33.77,33.77,0,0,1-11.4-8.18,35.32,35.32,0,0,1-3.89-5.13c-.54-.88-2.31-3.06-2.06-4.19,1.16-5.26,16.76,4.1,18.84,5.36,9.18,5.59,18.52,11.87,26.18,19.45,0,0,0,.06,0,.09a.12.12,0,0,1-.05.09Z" style="fill:#ebebeb"></path><path d="M148.25,437l-.61-.42a.12.12,0,0,0,.05-.09c-5.07-3.85-10.45-7.34-15.86-10.7a157.22,157.22,0,0,0-18-10.12c-.85-.39-4.4-2.51-5.14-1.13s3,4.52,3.73,5.23c4.63,4.14,10.67,6,16.51,7.75,3.79,1.11,7.52,2.18,10.91,4.27,2.85,1.76,5.49,3.84,8.32,5.61a.2.2,0,0,0,.17-.16c-1.45-.92-2.85-1.93-4.25-2.93l4.25,2.92A.18.18,0,0,0,148.25,437Zm-12.79-7.82c-5.68-2.22-11.78-3.19-17.25-6a24.1,24.1,0,0,1-7.07-5.24c-.38-.42-2.23-2.28-1.81-3,.28-.5,1.75-.05,2,0a45.2,45.2,0,0,1,4.72,2.1c5.35,2.73,10.54,5.82,15.64,9,2.83,1.76,5.6,3.59,8.35,5.46A27.51,27.51,0,0,0,135.46,429.19Z" style="fill:#fff"></path><path d="M125.67,328.12c.62,4.74-.34,9.7-1.63,14.26-3,10.56-8.8,20.38-10.63,31.27-.08.43-.14.86-.2,1.28.1.57,0,.43-.16-.23,0,0,0,0,0,0-.8-2.89-3.55-15.66-2.29-24.83.79-5.72,2.76-11.12,4.73-16.51,1.14-3.08,2.24-6.17,3.39-9.23.37-1,.89-3.79,2.38-4C124.14,319.68,125.42,326.26,125.67,328.12Z" style="fill:#ebebeb"></path><path d="M120.68,329.07a1,1,0,0,0-1.28.33,5.05,5.05,0,0,0-.63,1.87l-.87,3.36c-2,7.74-4.69,15.63-5.43,23.62a65.84,65.84,0,0,0,.57,15.92c0,.18,0,.35,0,.52,0,0,0,0,0,0,.18.66.26.8.16.23.06-.42.12-.85.2-1.28,0-.59,0-1.19,0-1.78a48.71,48.71,0,0,1,2.7-12,121.43,121.43,0,0,0,5.46-22.79,23.56,23.56,0,0,0,.17-5.24C121.7,331.05,121.51,329.49,120.68,329.07Zm.69,2.5a8.79,8.79,0,0,1,.12,1.15,22.63,22.63,0,0,1-.06,2.47,59.26,59.26,0,0,1-.8,5.92,165.07,165.07,0,0,1-5.41,20.48,43.34,43.34,0,0,0-2.12,10.26c-.29-2.94-.45-5.88-.45-8.81,0-7.54,2.13-14.67,4-21.92.46-1.79.93-3.58,1.39-5.37l.69-2.69.34-1.35c.23-.9.09-1.27,1.1-1.55C121.4,329.82,121.2,330.52,121.37,331.57Z" style="fill:#fff"></path><path d="M133.19,372.27a58.94,58.94,0,0,1,2.88,10.84c1.23,7.41.1,16,2,23.36.18.48.33,1,.47,1.47,0,.19.1.37.14.56s-.13.15-.18.06c-.15-.31-.3-.63-.47-.94v0l-.25-.49c-3.67-7.19-8.39-13.76-9.95-21.83-1-5-2.5-18.66.78-19.7C130.1,365.11,132.39,370.15,133.19,372.27Z" style="fill:#ebebeb"></path><path d="M130.21,373c-.78.37-.76,1.9-.8,2.55a30,30,0,0,0,.18,5.1,51,51,0,0,0,1.85,9.31,101.11,101.11,0,0,0,6.38,17.15l.25.49v0c.17.31.32.63.47.94.05.09.21,0,.18-.06s-.09-.37-.14-.56c-2.42-6.33-3.43-13-4.27-19.72C134.13,386.7,132.9,371.73,130.21,373Zm2.45,6.08c.23,1.41.43,2.83.62,4.25.44,3.31.81,6.64,1.3,9.95A75.23,75.23,0,0,0,136.83,404a126.37,126.37,0,0,1-4.5-12.21,68.32,68.32,0,0,1-2-8.33,34.41,34.41,0,0,1-.47-4.64c0-.74-.35-5,.54-5.4C131.48,372.94,132.56,378.47,132.66,379.08Z" style="fill:#fff"></path><path d="M164.51,357.65c1.81,2.23,1,6.67,0,9a21.27,21.27,0,0,1-6.77,8.2c-4.08,3.23-8.64,5.71-12.07,9.7s-2.32,2.75-4.71,7.81c0,.1-.14.11-.22,0a1,1,0,0,1-.14-.81.59.59,0,0,1,0-.13c2.2-8.32,6.46-14.87,12.12-21.36,3.21-3.68,5.14-8.34,8.49-11.89C162.44,356.89,163.26,356.11,164.51,357.65Z" style="fill:#ebebeb"></path><path d="M162.59,362c-1.23-.58-2.77,1.91-3.39,2.81a52.55,52.55,0,0,1-5.85,7.43,64.29,64.29,0,0,0-5.7,6.09,41.72,41.72,0,0,0-6.2,11.14,20.44,20.44,0,0,0-.88,2.09,1,1,0,0,0,.14.81l.09-.28a28.56,28.56,0,0,1,10.08-13c4.66-3.53,9.05-7.46,11.54-12.87C162.87,365.29,163.72,362.56,162.59,362Zm-.2,3.54a23.81,23.81,0,0,1-1.38,2.71,29.13,29.13,0,0,1-3.3,4.43,51.36,51.36,0,0,1-7.35,6.38,31,31,0,0,0-7.68,8.17,42.85,42.85,0,0,1,5.78-9.45c2.1-2.57,4.67-4.66,6.83-7.16,1-1.15,1.88-2.39,2.76-3.63l1.41-2c.42-.59,1.75-2.72,2.64-2.54C163.26,362.67,162.56,365.18,162.39,365.56Z" style="fill:#fff"></path><path d="M88.32,336.66c7.35,8.3,14.19,17,20.7,26a.28.28,0,0,1,0,.34.16.16,0,0,1,0,.06l.12.17a.14.14,0,0,1,0,.18H109a.17.17,0,0,1-.13,0c-4.58-4.49-8.89-8.7-14.66-11.67-5.28-2.72-10.49-5-15.07-8.83-3.92-3.31-15-19.61-13.21-23.5C67.16,316.78,82.46,330.06,88.32,336.66Z" style="fill:#ebebeb"></path><path d="M79.21,331.11c-.95-.92-3.77-4.57-5.56-3.83s1.06,4.43,1.59,5.21a54.09,54.09,0,0,0,6.54,8.09c2.48,2.41,5.43,4,8.29,5.91,7.06,4.66,13.27,10.72,18.94,16.95h.06a.14.14,0,0,0,0-.18l-.12-.17a.16.16,0,0,0,0-.06C100.14,351.47,89.63,341.23,79.21,331.11Zm29.19,31.54a119.9,119.9,0,0,0-12.52-12.17c-5.18-4.34-11.44-7.14-15.93-12.3A40.5,40.5,0,0,1,74.07,330c-.19-.4-.92-1.73-.43-2.25s1.7.11,3.29,1.56c1.31,1.21,2.55,2.49,3.83,3.74,5,4.9,10,9.82,14.81,14.92Q102.28,355.08,108.4,362.65Z" style="fill:#fff"></path><path d="M118.91,397.52a.17.17,0,0,1,0,.12.19.19,0,0,1-.24.12l-.71-.22s0,0-.06,0c-5.26-.68-9.53.21-14.59,1.51a23.31,23.31,0,0,1-11.38,0,38.92,38.92,0,0,1-11.47-5.18c-1.44-.93-6.06-3-5.31-5.53,1.24-4.17,15.26,1.26,17.68,2a112.47,112.47,0,0,0,13.13,3.52c4.4.84,8.79,1.57,12.88,3.48A.12.12,0,0,1,118.91,397.52Z" style="fill:#ebebeb"></path><path d="M116.13,396.88s0,0,0,0c-2.54-.58-5.07-1.27-7.64-1.71-2.87-.51-5.8-.44-8.68-.94-5.39-.93-10.52-2.89-15.85-4.08-.69-.15-2.06-.42-1.7.77.15.51.9.93,1.29,1.2a25.26,25.26,0,0,0,3.75,2.21c4.45,2.12,9.6,3.66,14.56,3.44,5.75-.26,11.35-1.34,17-.12a.17.17,0,0,0,0-.12A16.71,16.71,0,0,0,116.13,396.88Zm-12.46.35A31.73,31.73,0,0,1,85.58,393a26.75,26.75,0,0,1-2.32-1.55c-.44-.37-1.09-1.17.61-.95a9.48,9.48,0,0,1,1.17.28c1.38.34,2.75.73,4.12,1.11,2.91.83,5.82,1.71,8.79,2.34a55,55,0,0,0,8,.95,64.25,64.25,0,0,1,9.62,1.64C111.64,396.31,107.59,396.92,103.67,397.23Z" style="fill:#fff"></path><path d="M103.76,386.12a.39.39,0,0,1,0,.24.25.25,0,0,1,0,.12.43.43,0,0,1-.09.13l0,0a.34.34,0,0,1-.37,0,14.69,14.69,0,0,1-2.24-1c-8.71-3.32-17.64-6.83-24.73-13a57.35,57.35,0,0,1-9.47-10.75c-1.34-1.93-5-6-3.8-8.69s3.6-1,5.23.14a122.59,122.59,0,0,1,12.2,9.21,67.86,67.86,0,0,1,10.2,11.09c3.57,4.87,7,9.91,12.86,12.12A.41.41,0,0,1,103.76,386.12Z" style="fill:#ebebeb"></path><path d="M87.67,373.8a149,149,0,0,0-15.92-14.42c-.73-.58-2.82-2.07-3.15-.4-.38,2,2.53,4.3,3.64,5.47a111.74,111.74,0,0,0,13.63,12.37,62.7,62.7,0,0,0,17.85,9.66.25.25,0,0,0,0-.12c-10.54-3.91-19.69-10.77-27.67-18.58-1.92-1.89-3.87-3.79-5.63-5.83-.28-.33-1.89-2.53-1.27-3.13s2.83,1.27,3.1,1.5l3.8,3.17a174.77,174.77,0,0,1,13.42,12.83,42.58,42.58,0,0,0,14.25,10,.39.39,0,0,0,0-.24C97.37,383.31,92.44,378.88,87.67,373.8Z" style="fill:#fff"></path><path d="M87.74,295.51a42.24,42.24,0,0,1,6.88,13.05c2.13,7.36,2,15.05,3.06,22.58,0,0,0,.06,0,.09a51,51,0,0,0,1.19,6.08c.11.42.23.85.36,1.28a.29.29,0,0,1,0,.26.4.4,0,0,1-.17.09.37.37,0,0,1-.18,0h0a.31.31,0,0,1-.2-.2c-.22-.6-.4-1.21-.59-1.82a.12.12,0,0,1-.09-.08c-4.5-9.4-9.6-18.89-14.71-28.19a75.34,75.34,0,0,1-5.8-12.85c-.87-2.65-1.92-6.73,0-9.18a.58.58,0,0,1,.51-.28C82.23,287.05,85.42,292.33,87.74,295.51Z" style="fill:#ebebeb"></path><path d="M83.05,296.11c-2-.66-1.62,1.75-1.29,3a81.76,81.76,0,0,0,3.59,9.49q2.13,5.26,4.43,10.46c2.88,6.52,6.92,13,9,19.87v0h0a.37.37,0,0,0,.18,0,.4.4,0,0,0,.17-.09c-.11-.52-.21-1-.32-1.54-.4-2-.79-4.06-1.19-6.08,0,0,0-.06,0-.09-1.93-9.75-4.05-19.41-9.17-28.35C87.32,300.71,85.55,296.91,83.05,296.11Zm6.08,8.52a70.29,70.29,0,0,1,6.47,17.86c1.11,4.93,1.87,9.92,2.9,14.87-1.42-4-3.49-7.75-5.28-11.59q-4.22-9.06-7.94-18.32c-.61-1.49-1.19-3-1.77-4.47-.51-1.32-1.61-3.39-1.61-4.83,0-2.81,2.33-.91,3.09-.08a16.1,16.1,0,0,1,1.71,2.4Q88,302.51,89.13,304.63Z" style="fill:#fff"></path><path d="M149.89,346.2a205.33,205.33,0,0,1-5.56,27.14c-2.29,8.18-4.66,16.36-5.78,24.8-1.47,11.2-.46,23.48,5.25,33.23a132.6,132.6,0,0,1-22.5-37.61c-9.2-23.12-17.54-46.88-28.72-69.15-.18-.37-.69-.08-.56.29,4.59,12.16,10,24,14.65,36.14s9,24.23,13.85,36.18c.52,1.29,1.07,2.57,1.64,3.84-7.14-8.85-17.6-15.36-27.87-19.14-.13-.05-.19.15-.06.2A72.83,72.83,0,0,1,114,395.28c5.11,4.72,9,10.18,13.12,15.7A111.24,111.24,0,0,0,166,451.52a.16.16,0,0,0,.17-.26,111.3,111.3,0,0,1-18-15.09C139,424,138.58,407.79,141.32,393c1.43-7.73,3.48-15.32,5.31-23s3.89-15.83,3.69-23.85A.22.22,0,0,0,149.89,346.2Z" style="fill:#ebebeb"></path></g><g id="freepik--Plant--inject-129"><path d="M434.8,315.79c-4.08-4-9.36-8.83-15.6-7.11-5.87,1.63-8.12,8-9.17,13.37-1.35,6.89-2.41,13.84-3.5,20.76s-2.14,14-3.15,21q-.86,5.93-1.68,11.87c-.28,2-.55,4-.83,5.93s-.59,3.89-.7,5.84c0,.63.95.72,1.09.12.75-3.3,1.06-6.73,1.55-10.08s1-6.74,1.47-10.11q1.47-10,3-20.07t3.12-20.06c.9-5.66,1.33-12.71,6.35-16.44a9.7,9.7,0,0,1,9.4-.88c3.3,1.26,6,3.63,8.53,6A.09.09,0,0,0,434.8,315.79Z" style="fill:#263238"></path><path d="M429.21,311.7s-8.34-3-12.46,3.09.81,21.58,38.8,30.32a107.43,107.43,0,0,0-9.14-34.35C438.26,293,423.75,299.73,429.21,311.7Z" style="fill:#E427FF"></path><path d="M453.36,342.57a29.74,29.74,0,0,0-1.91-3.08c-.63-1-1.28-1.95-1.92-2.92-.49-.73-1-1.46-1.49-2.18,0-.17,0-.36.07-.54,0-.33.09-.66.13-1,.09-.71.2-1.42.3-2.13s.22-1.42.36-2.12a11.19,11.19,0,0,1,.5-2.24.09.09,0,1,0-.17,0,9.25,9.25,0,0,1-.34,1.25c-.09.32-.17.64-.25,1-.19.72-.36,1.45-.53,2.17s-.27,1.34-.39,2c-.05.32-.1.65-.14,1-.68-1-1.37-1.92-2.08-2.86-2-2.65-4.15-5.21-6.36-7.71a.15.15,0,0,0,0-.07c.2-4,.1-7.94,1-11.87,0-.1-.14-.16-.16-.05-.83,3.68-1.66,7.55-1.42,11.35-.79-.88-1.6-1.76-2.41-2.63-1.85-2-3.73-3.95-5.66-5.87-.07-.07-.2,0-.12.12,3.2,3.45,6.24,7,9.2,10.69a67,67,0,0,0-6.94.26c-2.58.19-5.14.52-7.7.87-.1,0-.07.19,0,.17a73,73,0,0,1,7.68-.69c2.48-.1,4.94,0,7.42,0,1.6,2,3.18,4,4.74,6h-.35c-.58,0-1.17,0-1.75,0-1.15,0-2.31.1-3.46.2a51.77,51.77,0,0,0-7,1,.09.09,0,0,0,0,.17c2.33-.26,4.67-.48,7-.56,1.12,0,2.24,0,3.36,0,.58,0,1.17,0,1.75,0a2,2,0,0,0,1-.09l3.05,4c.81,1.06,1.61,2.13,2.39,3.21s1.52,2.31,2.4,3.34C453.29,342.75,453.4,342.66,453.36,342.57Z" style="fill:#263238"></path><path d="M432.85,320.33a26.36,26.36,0,0,0-4.07-.19c-1.35,0-2.71,0-4.06.08a.09.09,0,1,0,0,.17c1.37-.1,2.74-.12,4.12-.1s2.66.15,4,.11A0,0,0,0,0,432.85,320.33Z" style="fill:#263238"></path><path d="M444.77,323.4c.16-1.3.32-2.61.6-3.88,0-.12-.15-.16-.17,0-.2,1.28-.44,2.55-.63,3.83-.1.64-.18,1.28-.26,1.92a8.47,8.47,0,0,0-.16,1.81.12.12,0,0,0,.22,0,11,11,0,0,0,.2-1.81C444.63,324.63,444.7,324,444.77,323.4Z" style="fill:#263238"></path><path d="M442.27,309c-.33,1.26-.66,2.54-.89,3.83-.12.65-.22,1.3-.31,2a8.28,8.28,0,0,0-.13,1.92s.09,0,.1,0a10.43,10.43,0,0,0,.3-1.83c.09-.63.18-1.26.29-1.89.23-1.33.47-2.64.8-3.94C442.46,309,442.3,308.91,442.27,309Z" style="fill:#263238"></path><path d="M386.51,392.8q-.31-3.58-.69-7.17-.75-7.1-1.72-14.17c-.63-4.7-1.23-9.41-2-14.1a34.9,34.9,0,0,0-1.45-6.4,6.08,6.08,0,0,0-3.54-4c-4.47-1.54-7.49,3.09-9.29,6.37-.06.1.09.17.15.08,1.08-1.55,4.06-5.91,7.46-5.71,2.28.14,4.1,1.76,5.2,7.45,2.73,14.17,5.19,42.94,5.47,44.82.15,1,.86.95.87-.12C387,397.5,386.72,395.15,386.51,392.8Z" style="fill:#263238"></path><path d="M369,351.57s3.91-13.8-4.73-6.9c-14.37,11.48-14.88,36.46-14.88,36.46s25.55-14.85,28.73-24.64C382.88,341.91,369,351.57,369,351.57Z" style="fill:#E427FF"></path><path d="M373.87,358.34c-2,.41-4,.67-6.06,1l-2.88.41c-.65.09-1.3.15-2,.23,1.91-2.62,3.83-5.24,5.65-7.91.07-.1-.09-.21-.17-.13a60.83,60.83,0,0,0-4.27,4.93c-.37-1.07-.76-2.13-1.13-3.2-.44-1.24-.9-2.46-1.22-3.74,0-.1-.19-.05-.16.05.35,1.27.59,2.56.93,3.82s.7,2.44,1.13,3.63c-.93,1.21-1.83,2.46-2.7,3.72-.44-1.25-1-2.46-1.37-3.72a.09.09,0,0,0-.17.05c.46,1.4.71,2.85,1.14,4.26-.59.86-1.18,1.72-1.74,2.58-1,1.6-2,3.22-2.95,4.85a.39.39,0,0,0-.23.39c-1.61,2.79-3.15,5.63-4.66,8.49-.05.09.1.18.15.08,1.52-2.83,3.2-5.57,5-8.27h0a4.07,4.07,0,0,1,.83-.16l.89-.19c.66-.14,1.31-.32,2-.48,1.29-.32,2.58-.63,3.89-.85.11,0,.06-.19-.05-.17-1.54.3-3.1.47-4.66.65-.74.09-1.47.18-2.21.3l-.1,0q1.38-2.1,2.79-4.16t2.84-4c.89-.12,1.77-.36,2.65-.52l3-.58c2-.39,3.95-.84,5.94-1.17C374,358.49,374,358.32,373.87,358.34Z" style="fill:#263238"></path><path d="M358.51,359.7c-.12-.36-.23-.73-.34-1.1a20.58,20.58,0,0,1-.59-2.31c0-.11-.19-.06-.16,0,.16.78.34,1.55.52,2.33a15,15,0,0,0,.67,2.29.15.15,0,0,0,.29-.09C358.8,360.48,358.64,360.09,358.51,359.7Z" style="fill:#263238"></path><path d="M376.48,355.15c-1.16.17-2.34.25-3.51.36s-2.34.26-3.51.44c-.07,0-.07.11,0,.1,1.18-.08,2.34-.17,3.52-.32s2.33-.33,3.51-.41C376.6,355.31,376.59,355.13,376.48,355.15Z" style="fill:#263238"></path><path d="M394.88,375.34c-.45-10.16-1.1-20.3-2.12-30.42-.51-5-1.08-10.07-1.79-15.08a106.24,106.24,0,0,0-2.91-14.6,27.84,27.84,0,0,0-4.86-10.3,11,11,0,0,0-9.82-4.29c-4.44.55-8,3.35-11.12,6.4-3.47,3.41-6.65,7.14-9.87,10.79-.81.92-1.62,1.85-2.42,2.79-.07.08,0,.2.12.12,3.15-3.62,6.42-7.13,9.84-10.48,3.16-3.11,6.41-6.5,10.79-7.78a11.15,11.15,0,0,1,6.27-.15,10,10,0,0,1,4.28,2.72c2.46,2.56,3.85,6,4.83,9.39,2.73,9.34,3.71,19.13,4.73,28.77s1.72,19.61,2.21,29.45.89,19.79,1.84,29.65c.12,1.21.27,2.43.43,3.64.1.82,1.37.82,1.3,0C395.8,395.74,395.33,385.55,394.88,375.34Z" style="fill:#263238"></path><path d="M361.7,308.15s5.8-10.74-1.05-14.18-29.79,22.16-36.49,59.6c0,0,37-16.39,49.62-32.72S372.1,300.92,361.7,308.15Z" style="fill:#E427FF"></path><path d="M367.15,316.88c-4.16,0-8.32-.32-12.48-.29l2.34-2.68a38.92,38.92,0,0,0,3.26-3.78c.06-.09-.07-.21-.15-.14a28.48,28.48,0,0,0-3.15,3.16c-1,1.1-2.08,2.22-3.11,3.33-1.6,1.73-3.16,3.48-4.71,5.23,0-.17,0-.34,0-.5,0-.73,0-1.46,0-2.19,0-1.41,0-2.83,0-4.24,0-2.86,0-5.74.22-8.6,0-.11-.16-.1-.17,0-.2,2.87-.5,5.73-.64,8.61-.07,1.41-.1,2.82-.12,4.23,0,.73,0,1.46,0,2.19,0,.4,0,.82,0,1.23l-.73.81c-3.32,3.8-6.48,7.73-9.56,11.73,0-.23,0-.45-.05-.67L338,333c-.11-.95-.24-1.91-.38-2.86s-.28-1.78-.43-2.67-.41-2-.49-3a.08.08,0,1,0-.16,0,25.87,25.87,0,0,1,.34,3c.09.91.18,1.83.26,2.75s.16,1.83.26,2.75c0,.44.08.88.13,1.32,0,.22.05.44.08.66a1.13,1.13,0,0,0,.18.52l-1.58,2.07c-2.11,2.78-4.17,5.59-6.23,8.4-.06.09.06.21.12.12,2-2.55,4-5.05,6-7.53,1.53.07,3.08-.05,4.61-.07s3.21,0,4.82,0c.11,0,.1-.17,0-.17-1.6,0-3.21.05-4.82.06-1.46,0-3-.07-4.42,0,1.79-2.18,3.6-4.34,5.42-6.5l2-2.36a8.86,8.86,0,0,0,1.86.07h2.19c1.36,0,2.73,0,4.1-.06,2.83,0,5.66-.13,8.49-.14.11,0,.1-.17,0-.17-2.83,0-5.66-.16-8.49-.23-1.37,0-2.74-.08-4.11-.1l-2.19,0c-.42,0-.85,0-1.27,0l4.67-5.53a.22.22,0,0,0,.09-.1q2.26-2.68,4.57-5.36l.63-.73c4.32.14,8.63-.15,12.94-.06A.09.09,0,0,0,367.15,316.88Z" style="fill:#263238"></path><path d="M365,324.24h-1c-.1,0-.09.15,0,.15h1A.09.09,0,0,0,365,324.24Z" style="fill:#263238"></path><path d="M362.78,324.25l-4-.08-2-.07a7.79,7.79,0,0,0-1.87,0,.07.07,0,0,0,0,.13,7.2,7.2,0,0,0,1.86.13l2,0c1.34,0,2.67,0,4,0A.09.09,0,0,0,362.78,324.25Z" style="fill:#263238"></path><path d="M351.13,336.75a56.28,56.28,0,0,0-8.19-.74,0,0,0,1,0,0,.06c2.72.26,5.45.41,8.15.85C351.2,336.94,351.24,336.77,351.13,336.75Z" style="fill:#263238"></path><path d="M340,324.83c0-.23-.05-.47-.08-.71-.07-.54-.15-1.07-.24-1.6-.16-1-.34-2-.53-3a.09.09,0,0,0-.17,0c.13,1.05.24,2.09.34,3.14.05.52.09,1,.13,1.55a4.51,4.51,0,0,0,.21,1.47c.08.16.32.09.36-.06A2,2,0,0,0,340,324.83Z" style="fill:#263238"></path><path d="M402.38,294.36c-1.33-2.47-3-5.73-6.32-5.52-2.74.17-4,3-4.55,5.26-1.81,7.13-1.93,14.65-2.29,22-.74,15.44-1.41,30.9-1.5,46.36q0,6.43,0,12.86c0,4.37,0,8.76.31,13.13a.32.32,0,0,0,.64,0c0-3.74-.11-7.48-.12-11.22s0-7.29.07-10.94q.18-11.09.59-22.17c.28-7.34.6-14.67.91-22q.23-5.51.48-11c.16-3.55.31-7.11.72-10.64.22-2,.52-4,.93-5.91a8.2,8.2,0,0,1,1.71-4,3.73,3.73,0,0,1,4.83-.35,10.23,10.23,0,0,1,3.42,4.27C402.28,294.55,402.43,294.46,402.38,294.36Z" style="fill:#263238"></path><path d="M401.48,293.18s-2.72-9.61,3.3-4.8c10,8,10.37,25.39,10.37,25.39s-17.8-10.34-20-17.15C391.83,286.46,401.48,293.18,401.48,293.18Z" style="fill:#E427FF"></path><path d="M411.4,306.64c-.16-.26-.34-.52-.5-.79a5.47,5.47,0,0,0,0-.81c0-.42,0-.83,0-1.25q0-1.21.09-2.43c0-.11-.17-.1-.17,0,0,.8-.08,1.6-.1,2.39,0,.4,0,.8,0,1.2,0,.15,0,.33,0,.51-.7-1.08-1.42-2.16-2.16-3.21l-.66-.91a18.3,18.3,0,0,1-.06-3.14c0-1.12,0-2.23.07-3.35,0-.11-.17-.1-.17,0,0,1.16-.09,2.32-.15,3.48a22.82,22.82,0,0,0-.07,2.48c-1.72-2.33-3.54-4.59-5.39-6.83-.06-.07-.19,0-.13.11,1.14,1.44,2.24,2.93,3.31,4.43-2.09-.49-4.22-.77-6.35-1.08-.11,0-.15.15,0,.17,2.25.34,4.46.91,6.69,1.4h0c.86,1.2,1.7,2.41,2.54,3.62.34.49.67,1,1,1.49l-.1,0-.69-.09c-.49-.06-1-.1-1.48-.14-1-.08-2.06-.13-3.09-.19-.11,0-.1.17,0,.17,1,0,2,.1,3,.21l1.6.19.69.09.21,0c.56.84,1.14,1.68,1.71,2.52,1,1.48,1.9,3.08,3,4.51a.08.08,0,0,0,.14-.08A45.57,45.57,0,0,0,411.4,306.64Z" style="fill:#263238"></path><path d="M407,295.79c0-.38,0-.75,0-1.12a15.48,15.48,0,0,1,.09-2.36c0-.12-.17-.14-.17,0,0,.78-.08,1.56-.12,2.34,0,.38,0,.77,0,1.16v.54a1.75,1.75,0,0,0,0,.56.08.08,0,0,0,.15,0,1.51,1.51,0,0,0,0-.52Z" style="fill:#263238"></path><path d="M404.77,299.77c-.66-.11-1.34-.15-2-.21s-1.47-.12-2.2-.22a.09.09,0,1,0,0,.17c1.41.09,2.81.34,4.21.39C404.83,299.91,404.85,299.78,404.77,299.77Z" style="fill:#263238"></path><path d="M410.36,299.83c.05.07,0,.28,0,.37v.31c0,.22,0,.45,0,.67v.67a1.45,1.45,0,0,0,0,.59,0,0,0,0,0,.07,0,.67.67,0,0,0,0-.28v-.31c0-.23,0-.45,0-.67v-1c0-.09,0-.29,0-.37S410.25,299.67,410.36,299.83Z" style="fill:#263238"></path><path d="M411.66,343.41c-3.75-2.81-7.11-6.85-12.15-7.05-4.15-.16-7.06,3-8.73,6.45a36.62,36.62,0,0,0-2,5.74q-1.12,3.94-2.12,7.93-2,7.83-3.33,15.79c-.51,3-1,5.92-1.35,8.9a75.49,75.49,0,0,0-.88,9.11.47.47,0,0,0,.93.11c.51-2.49.72-5.06,1.09-7.58s.75-5.06,1.18-7.58c.85-5,1.84-10.07,3-15.05,1.07-4.71,2.13-9.49,3.65-14.08,1.09-3.29,2.84-7.13,6.39-8.31,5.4-1.8,10.31,2.77,14.26,5.74C411.63,343.6,411.75,343.47,411.66,343.41Z" style="fill:#263238"></path><path d="M407.78,340.72s-3.45-9.86,1.54-11.79c7.48-2.89,27.06,19.16,23.23,52.95,0,0-15.13-8.34-26.3-17.71s-14-21.62-9.11-24.79S407.78,340.72,407.78,340.72Z" style="fill:#E427FF"></path><path d="M430.29,374.63a26.46,26.46,0,0,0-1.82-3.4q-1-1.74-2-3.45c-1.3-2.23-2.59-4.46-3.93-6.66-.21-.36-.44-.71-.65-1.07,0-.13.05-.26.08-.39.07-.33.15-.65.22-1,.17-.73.3-1.47.43-2.21.28-1.45.53-2.91.92-4.33,0-.11-.15-.14-.17,0-.31,1.44-.77,2.86-1.19,4.28-.22.69-.44,1.39-.62,2.09-.07.24-.13.49-.19.73-1.61-2.64-3.25-5.26-5-7.8a3.44,3.44,0,0,0,.17-1.08l.18-1.48c.13-1.12.26-2.23.42-3.34a65,65,0,0,1,1.18-6.47c0-.11-.14-.13-.17,0-.53,2.13-1.12,4.26-1.52,6.41-.2,1.06-.39,2.12-.53,3.19-.07.53-.13,1.07-.18,1.61,0,.15,0,.32-.07.48-.54-.77-1.08-1.53-1.65-2.28-1.73-2.27-3.52-4.49-5.32-6.7-.07-.09-.21,0-.14.1a119.5,119.5,0,0,1,8.5,12.42c.5.79,1,1.59,1.47,2.39l-.48-.06c-.63-.08-1.28-.12-1.91-.18-1.27-.12-2.55-.23-3.82-.33-2.55-.2-5.1-.36-7.65-.63a.09.09,0,0,0,0,.17c2.58.29,5.14.7,7.71,1.07,1.26.18,2.53.35,3.79.51a15.37,15.37,0,0,0,2.92.3l3,4.88a5.08,5.08,0,0,0-.68,0H418l-4.92,0c-.11,0-.09.17,0,.17,1.66,0,3.32.1,5,.19l2.36.14,1.18.09a2.59,2.59,0,0,0,1,0c.85,1.38,1.71,2.76,2.56,4.15s1.57,2.55,2.38,3.81a30.27,30.27,0,0,0,2.56,3.85A.1.1,0,0,0,430.29,374.63Z" style="fill:#263238"></path><path d="M423.08,347.33a25.06,25.06,0,0,1-.67,3.21c-.28,1.09-.6,2.18-1,3.25a.11.11,0,1,0,.21.06c.33-1.06.63-2.14.89-3.22s.44-2.19.7-3.28C423.28,347.25,423.09,347.22,423.08,347.33Z" style="fill:#263238"></path><path d="M412,353.93a1.24,1.24,0,0,0-.83-.31l-1.43-.2c-.88-.12-1.77-.22-2.65-.32-1.85-.22-3.69-.39-5.54-.63-.11,0-.14.16,0,.17,1.74.21,3.47.48,5.21.7.85.12,1.7.24,2.55.34l1.23.13a4.44,4.44,0,0,1,1.41.24A.07.07,0,0,0,412,353.93Z" style="fill:#263238"></path><path d="M423.06,368.78c-.87-.07-1.75-.1-2.62-.12l-1.32-.05h-.64a4.46,4.46,0,0,1-.82-.05c-.12,0-.14.19,0,.17a4,4,0,0,1,.77,0l.69,0,1.32.08c.87.05,1.75.11,2.62.11C423.15,369,423.16,368.79,423.06,368.78Z" style="fill:#263238"></path><path d="M428.39,365c.1-.49.19-1,.28-1.48l.54-2.92a.09.09,0,0,0-.17,0c-.21.95-.43,1.89-.64,2.84-.11.48-.21.95-.31,1.43,0,.22-.09.44-.14.66a1.82,1.82,0,0,0-.08.69c0,.08.14.15.19.06A3.45,3.45,0,0,0,428.39,365Z" style="fill:#263238"></path><polygon points="415.05 396.35 414.38 410.32 412.37 451.55 371.35 451.55 369.35 410.32 368.67 396.35 415.05 396.35" style="fill:#37474f"></polygon><polygon points="415.05 396.35 414.38 410.32 369.35 410.32 368.67 396.35 415.05 396.35" style="fill:#263238"></polygon><rect x="365.53" y="386.47" width="52.66" height="13.97" style="fill:#37474f"></rect></g><g id="freepik--Floor--inject-129"><polygon points="44.45 451.55 95.84 451.31 147.23 451.22 250 451.05 352.77 451.22 404.16 451.3 455.55 451.55 404.16 451.79 352.77 451.88 250 452.05 147.23 451.88 95.84 451.79 44.45 451.55" style="fill:#263238"></polygon></g><g id="freepik--character-1--inject-129"><rect x="156.06" y="124.42" width="187.87" height="250.1" style="fill:#37474f"></rect><path d="M337.28,56.16H162.7a17.83,17.83,0,0,0-17.66,18V433.56a17.84,17.84,0,0,0,17.66,18H337.28a17.85,17.85,0,0,0,17.68-18V74.15A17.84,17.84,0,0,0,337.28,56.16Zm6.64,366.29c0,9.46-7.08,17.11-15.82,17.11H171.91c-8.76,0-15.84-7.65-15.84-17.11V87.77c0-19.27,7.08-20.21,15.84-20.21h31.28c1.82,0,3.31,2.07,3.31,4.63V73.3c0,6,3.28,6,7.32,6h72.35c4.07,0,7.32,0,7.32-6V72.19c0-2.56,1.47-4.63,3.32-4.63H328.1c8.74,0,15.82,2.57,15.82,20.21Z" style="fill:#263238"></path><path d="M259.86,71.82H240.13a1.21,1.21,0,0,1-1.22-1.22h0a1.22,1.22,0,0,1,1.22-1.22h19.73a1.22,1.22,0,0,1,1.22,1.22h0A1.21,1.21,0,0,1,259.86,71.82Z" style="fill:#fff"></path><path d="M343.93,87.78V422.45c0,9.46-7.09,17.11-15.83,17.11H171.91c-8.76,0-15.84-7.65-15.84-17.11V87.78c0-19.28,7.08-20.22,15.84-20.22h31.28c1.82,0,3.31,2.07,3.31,4.63V73.3c0,6,3.28,6,7.32,6h72.35c4.07,0,7.33,0,7.33-6V72.19c0-2.56,1.46-4.63,3.31-4.63H328.1C336.84,67.56,343.93,70.13,343.93,87.78Z" style="fill:#fff"></path><path d="M343.92,87.77v7.15H156.06V87.77c0-19.27,7.09-20.21,15.85-20.21H203.2c1.82,0,3.3,2.07,3.3,4.63V73.3c0,6,3.29,6,7.32,6h72.35c4.07,0,7.33,0,7.33-6V72.19c0-2.56,1.47-4.63,3.32-4.63H328.1C336.84,67.56,343.92,70.13,343.92,87.77Z" style="fill:#E427FF"></path><g id="freepik--u5zjqx--inject-129"><path d="M197.8,75.08l-.31.3a1.37,1.37,0,0,1-.17.17,4.13,4.13,0,0,0-2.91-1.21,4.05,4.05,0,0,0-2.92,1.22,1.29,1.29,0,0,0-.16-.17l-.3-.3h0c.12-.12.25-.23.38-.34a4.57,4.57,0,0,1,.88-.57,4.36,4.36,0,0,1,1.17-.39c.2,0,.39-.05.59-.08h.51l.4,0a4.48,4.48,0,0,1,1.08.26,4.74,4.74,0,0,1,.72.34,4.19,4.19,0,0,1,.7.49l.32.28Z" style="fill:#fff"></path><path d="M192.45,76.5,192,76a3.43,3.43,0,0,1,4.86,0l-.48.48a2.74,2.74,0,0,0-2-.81A2.78,2.78,0,0,0,192.45,76.5Z" style="fill:#fff"></path><path d="M195.89,77l-.48.47a1.43,1.43,0,0,0-1-.41,1.38,1.38,0,0,0-1,.42l-.48-.48A2.09,2.09,0,0,1,195.89,77Z" style="fill:#fff"></path><path d="M194.84,77.89a.43.43,0,0,1-.86,0,.43.43,0,0,1,.86,0Z" style="fill:#fff"></path></g><circle cx="169.56" cy="75.99" r="1.24" style="fill:#fff"></circle><path d="M172.24,76a1.25,1.25,0,1,1,1.24,1.25A1.25,1.25,0,0,1,172.24,76Z" style="fill:#fff"></path><circle cx="177.41" cy="75.99" r="1.24" style="fill:#fff"></circle><path d="M180.08,76a1.25,1.25,0,1,1,1.25,1.25A1.25,1.25,0,0,1,180.08,76Z" style="fill:#fff"></path><path d="M184,76a1.25,1.25,0,1,1,1.25,1.25A1.25,1.25,0,0,1,184,76Z" style="fill:#fff"></path><path d="M329.82,78.7H319.7V74h10.12Zm-9.62-.5h9.12V74.53H320.2Z" style="fill:#fff"></path><rect x="320.54" y="74.81" width="6.53" height="3.1" style="fill:#fff"></rect><rect x="329.84" y="75.11" width="0.9" height="2.51" style="fill:#fff"></rect><path d="M343.93,374.52v47.93c0,9.46-7.09,17.11-15.83,17.11H171.91c-8.76,0-15.84-7.65-15.84-17.11V374.52Z" style="fill:#E427FF"></path><path d="M177.53,110.66v6.66a.63.63,0,0,1-.63.62.62.62,0,0,1-.62-.62v-4.76l-1.62,2.26a.63.63,0,0,1-.51.26h0a.62.62,0,0,1-.51-.26L172,112.56v4.76a.63.63,0,0,1-1.25,0v-6.66a.62.62,0,0,1,.62-.62h0a.6.6,0,0,1,.5.25l2.25,3.12,2.24-3.12a.62.62,0,0,1,.51-.25h0A.64.64,0,0,1,177.53,110.66Z" style="fill:#c7c7c7"></path><path d="M181.37,110.88a.61.61,0,0,1-.61.62.61.61,0,0,1-.61-.62v-.24a.6.6,0,0,1,.61-.6.6.6,0,0,1,.61.6Zm0,2.05v4.4a.6.6,0,0,1-.61.61.61.61,0,0,1-.61-.61v-4.4a.61.61,0,1,1,1.22,0Z" style="fill:#c7c7c7"></path><path d="M182.92,115.13a2.88,2.88,0,0,1,2.87-2.84,3,3,0,0,1,1.79.62.63.63,0,0,1,.13.84.6.6,0,0,1-.85.11,1.86,1.86,0,0,0-1.07-.36,1.68,1.68,0,0,0-1.68,1.63,1.66,1.66,0,0,0,1.68,1.61,1.81,1.81,0,0,0,1.07-.36.62.62,0,0,1,.85.12.63.63,0,0,1-.13.84,3.1,3.1,0,0,1-1.79.6A2.86,2.86,0,0,1,182.92,115.13Z" style="fill:#c7c7c7"></path><path d="M191,117.32a.62.62,0,0,1-.63.62.64.64,0,0,1-.6-.46.88.88,0,0,1,0-.16v-6.66a.63.63,0,0,1,1.25,0v2a2.6,2.6,0,0,1,1.21-.33,2.47,2.47,0,0,1,2.46,2.48v2.55a.62.62,0,0,1-1.24,0v-2.55a1.22,1.22,0,1,0-2.43,0Z" style="fill:#c7c7c7"></path><path d="M201.91,115.13v2.21a.61.61,0,0,1-.6.6.62.62,0,0,1-.59-.49,2.54,2.54,0,0,1-1.5.49,2.61,2.61,0,0,1-1.92-.83,2.94,2.94,0,0,1,0-4,2.59,2.59,0,0,1,1.92-.85,2.62,2.62,0,0,1,1.5.5.62.62,0,0,1,.59-.5.61.61,0,0,1,.6.61Zm-1.2,0a1.69,1.69,0,0,0-.44-1.17,1.42,1.42,0,0,0-1.05-.46,1.37,1.37,0,0,0-1.05.46,1.79,1.79,0,0,0,0,2.33,1.43,1.43,0,0,0,1.05.44,1.48,1.48,0,0,0,1.05-.44A1.7,1.7,0,0,0,200.71,115.13Z" style="fill:#c7c7c7"></path><path d="M203.72,115.12a2.8,2.8,0,0,1,2.76-2.83,2.7,2.7,0,0,1,2.72,2.62V115a.34.34,0,0,1,0,.1.55.55,0,0,1-.59.45H205a1.53,1.53,0,0,0,.38.75,1.8,1.8,0,0,0,1.09.51,1.83,1.83,0,0,0,1.17-.29.65.65,0,0,1,.85,0,.51.51,0,0,1,0,.73,2.84,2.84,0,0,1-2,.75A2.8,2.8,0,0,1,203.72,115.12Zm1.23-.56h3.2a1.83,1.83,0,0,0-1.67-1.19A1.58,1.58,0,0,0,205,114.56Z" style="fill:#c7c7c7"></path><path d="M211.69,110a.63.63,0,0,1,.63.62v6.66a.63.63,0,0,1-1.25,0v-6.66A.62.62,0,0,1,211.69,110Z" style="fill:#c7c7c7"></path><path d="M173,123.58c1.55,0,2.7,1.82,2.7,3.94s-1.15,4-2.7,4-2.68-1.82-2.68-4S171.46,123.59,173,123.58Zm-2.4,3.94a4.74,4.74,0,0,0,.73,2.62,1.86,1.86,0,0,0,3.36,0,5,5,0,0,0,0-5.22,1.86,1.86,0,0,0-3.36,0A4.77,4.77,0,0,0,170.58,127.52Z" style="fill:#c7c7c7"></path><path d="M181,123.58c1.55,0,2.7,1.82,2.7,3.94s-1.15,4-2.7,4-2.69-1.82-2.69-4S179.47,123.59,181,123.58Zm-2.41,3.94a4.74,4.74,0,0,0,.74,2.62,1.85,1.85,0,0,0,3.35,0,5,5,0,0,0,0-5.22,1.85,1.85,0,0,0-3.35,0A4.77,4.77,0,0,0,178.59,127.52Z" style="fill:#c7c7c7"></path><path d="M187,125.68a.36.36,0,0,1,.37.37v.31a.36.36,0,0,1-.37.37.36.36,0,0,1-.37-.37v-.31A.36.36,0,0,1,187,125.68Zm0,4.8a.36.36,0,0,1,.37.37v.31a.36.36,0,0,1-.37.37.36.36,0,0,1-.37-.37v-.31A.36.36,0,0,1,187,130.48Z" style="fill:#c7c7c7"></path><path d="M188.73,124.56l1.58-.93a.13.13,0,0,1,.2,0,.13.13,0,0,1-.06.19l-1.58,1h-.07a.14.14,0,0,1-.13-.06A.15.15,0,0,1,188.73,124.56Zm1.51-.82a.16.16,0,0,1,.14-.15.15.15,0,0,1,.15.15v7.6a.15.15,0,0,1-.15.15.15.15,0,0,1-.14-.15Z" style="fill:#c7c7c7"></path><path d="M195.5,123.58c1.55,0,2.7,1.82,2.7,3.94s-1.15,4-2.7,4-2.68-1.82-2.68-4S194,123.59,195.5,123.58Zm-2.4,3.94a4.74,4.74,0,0,0,.73,2.62,1.86,1.86,0,0,0,3.36,0,5,5,0,0,0,0-5.22,1.86,1.86,0,0,0-3.36,0A4.77,4.77,0,0,0,193.1,127.52Z" style="fill:#c7c7c7"></path><path d="M273.69,374.52H192.8C189.61,362,187.33,353,187,351.6l-.06-.2h81l.32,1.3c.05.2.12.45.18.71l.08.32c.05.21.11.44.18.68v0C269.64,358.28,271.43,365.45,273.69,374.52Z" style="fill: rgb(255, 196, 192);"></path><polygon points="273.8 374.52 192.2 374.52 186.97 351.6 186.91 351.4 267.93 351.4 268.25 352.7 268.43 353.41 268.51 353.73 268.69 354.41 268.69 354.45 273.8 374.52" style="fill:#263238"></polygon><path d="M265.3,351.36v0c0,.05,0,.2,0,.42s-.06.72-.09,1.28v0l0,.32c0,.44-.07.95-.12,1.52h0c0,.28,0,.58-.07.9,0,.16,0,.32,0,.49,0,0,0,.05,0,.09s0,.34,0,.52c0,.54-.09,1.11-.15,1.73-.13,1.36-.27,2.88-.44,4.55-.06.56-.12,1.14-.18,1.73a2.06,2.06,0,0,0,0,.26c0,.35-.07.7-.11,1.06s-.11,1-.17,1.45-.13,1.19-.21,1.8c-.14,1.22-.3,2.47-.45,3.75-.05.41-.1.8-.15,1.22H156.06V351.4h47.57Z" style="fill: rgb(255, 196, 192);"></path><path d="M265.3,351.38v0c0,.05,0,.2,0,.42s-.06.72-.09,1.28v0l0,.32c0,.44-.08.95-.12,1.52h0c0,.29-.05.58-.07.9,0,.16,0,.32,0,.49,0,0,0,.05,0,.09s0,.34,0,.52c-.05.54-.11,1.11-.15,1.73-.13,1.36-.27,2.88-.44,4.55-.06.56-.12,1.14-.18,1.73a2.06,2.06,0,0,0,0,.26c0,.35-.07.7-.11,1.06s-.11,1-.17,1.45-.13,1.19-.21,1.8c-.14,1.22-.3,2.47-.45,3.75-.05.41-.1.8-.15,1.22H156.06V351.39H265.3Z" style="fill:#263238"></path><path d="M243.18,362.41c.07,4,0,8.07-.08,12.11h-1.4q.35-6.07.89-12.12A.3.3,0,0,1,243.18,362.41Z" style="fill:#455a64"></path><path d="M257.35,374.52a97.29,97.29,0,0,0,.31-11c0-.26.4-.25.41,0,.2,3.68.67,7.35.88,11Z" style="fill:#455a64"></path><path d="M201.56,364.58a94.13,94.13,0,0,1-1.56,9.94h-1.6a101.87,101.87,0,0,0,2.76-10A.2.2,0,0,1,201.56,364.58Z" style="fill:#455a64"></path><path d="M257.86,193.82c1.54,7.59,3.12,15.22,4.37,22.88.77,4.68,1.24,9.34,1.58,14A30.72,30.72,0,0,1,259.2,236c-.07-1.2-.16-2.38-.24-3.54-.39-5.62-1.23-11.11-2.13-16.65,0-.19-.27-.11-.25.08.74,5.72,1.09,11.56,1.37,17.33.06,1.26.09,2.52.1,3.78a41.35,41.35,0,0,1-5.18,3.7c0-1.38-.1-2.76-.15-4.11-.13-3.19-.31-6.37-.58-9.56a182.25,182.25,0,0,0-2.61-18.65c-.05-.25-.37-.14-.33.11.85,6.4,1.49,12.85,1.94,19.31.21,3.05.38,6.12.48,9.17,0,1.47,0,2.95.06,4.43a64.46,64.46,0,0,1-10.4,4.7c-10.25,3.66-21.6,3.48-32.23,1.85a55.94,55.94,0,0,1-25.86-10.84,61.55,61.55,0,0,0,5-15.89c0-.18-.18-.24-.23-.08q-1.68,5.31-3.76,10.4c-.65,1.6-1.37,3.16-2.09,4.72l-.33-.28c-.75-.62-1.54-1.28-2.32-2A99.35,99.35,0,0,0,183,224a91.33,91.33,0,0,0,3.4-14.6c0-.33-.34-.46-.43-.14-1.41,4.66-2.7,9.36-4.16,14-1,3.26-2.26,6.46-3.37,9.69-2.26-2.28-4.19-5.08-4.28-8.67-.08-3,1.05-5.72,1.93-8.4,1-3,1.85-6.07,2.56-9.18A103.7,103.7,0,0,0,181.2,187c.21-6.17-.5-12.34-.18-18.5.26-5.28,1.64-10.26,4.82-14A22.11,22.11,0,0,1,195.6,148c.05-.15,17.36-19,41.68-9.23,19.84,8,31.17,70.5,31.18,76.83A26,26,0,0,1,265,228.8c-.3-4-.87-7.91-1.5-11.72-1.31-7.94-3.29-15.64-5.33-23.37C258.12,193.47,257.8,193.57,257.86,193.82Z" style="fill:#263238"></path><path d="M223.4,242.87c8,12.47,65.45,76.29,87,73.12,5.49-.8,15.62-12,17.77-21.06,2.55-10.77-.38-47.53-4.12-66.62-1.13-5.71-46.77,1.76-43.48,11.53,4.37,13,6.6,19.71,6.16,19.55-2.52-.94-29-20.85-53.95-30.88C218.31,222.68,217.25,233.26,223.4,242.87Z" style="fill: rgb(255, 196, 192);"></path><path d="M324.18,231.94c0-5.39-1.93-30.47-4.06-37.23s-9.65-25.75-15-24.65-3.58,6.84-3.58,6.84-4.45-7.52-9.73-5.92-2.24,10.44-2.24,10.44S284.45,174,279.3,176s-.61,10.35-.61,10.35-4.38-7-7.93-3.56c-4.28,4.1,5.24,16,7,23.68.41,1.73,5.73,35.73,5.73,35.73Z" style="fill: rgb(255, 196, 192);"></path><path d="M278.32,185.63c7,8.8,8.51,13.86,9.7,24.85,0,.22.35.23.34,0-.18-10.88-1.19-17.5-9.64-25.22C278.31,184.89,278,185.21,278.32,185.63Z" style="fill:#263238"></path><path d="M289,180.73c6.46,9.78,8.17,15.25,10.26,26.68,0,.16.3.12.29,0-1.12-11.38-2.27-18-10-26.89C289.21,180.08,288.72,180.28,289,180.73Z" style="fill:#263238"></path><path d="M301.63,177.49c5.57,9.91,7.7,15.83,8.31,27.18a.21.21,0,0,0,.42,0c.5-11.64-2.1-19.05-8.41-27.33C301.52,176.79,301.28,176.86,301.63,177.49Z" style="fill:#263238"></path><path d="M284.15,249.23s-10.64-9.22-14.42-14.3-10.89-29.2-5.77-31c6.61-2.36,13.46,10.76,16,17.62,0,0,15.29-5.49,22.25,2.86S284.15,249.23,284.15,249.23Z" style="fill: rgb(255, 196, 192);"></path><path d="M266,203.84c7.59,2.19,10.31,11.41,13.25,17.89a.65.65,0,0,0,1,.24c6.56-1.87,16.37-2.6,22,2a.17.17,0,0,0,.23-.24c-5.32-5.7-15-5.77-22.07-3.26-2.91-6.69-6.05-15.81-14.38-16.66C266,203.76,265.94,203.83,266,203.84Z" style="fill:#263238"></path><path d="M286.68,258.45c.21,2,.58,3.93.93,5.87s.77,3.88,1.19,5.81l1.27,5.8,1.32,5.81a57.56,57.56,0,0,1-3.57-11.4c-.41-1.95-.76-3.92-1-5.9A30,30,0,0,1,286.68,258.45Z" style="fill:#263238"></path><path d="M250.7,280.72,262,241.32s-17.87-10.26-28.56-14.54c-14.14-5.67-19.56-1.74-11.08,14.9C228.05,252.82,250.7,280.72,250.7,280.72Z" style="fill:#E427FF"></path><path d="M260.75,245.72l-.11.39a31,31,0,0,0-17.55-.46,63,63,0,0,0-14.49,6l-.38-.56A62.19,62.19,0,0,1,243,245.11,31.5,31.5,0,0,1,260.75,245.72Zm-18.09,5.7A71.94,71.94,0,0,0,230,253.55l.42.58A71.7,71.7,0,0,1,242.7,252a50.67,50.67,0,0,1,15.91,1.23l.11-.39A50.44,50.44,0,0,0,242.66,251.42Zm3.21,23.25.42.52c1.79.72,3.6,1.38,5.44,2l.1-.35C249.81,276.17,247.83,275.46,245.87,274.67Z" style="fill:#fff"></path><path d="M248.11,275.65c1.25-5.85,2.59-11.66,4.18-17.43.79-2.87,1.63-5.74,2.51-8.59s2.06-5.61,2.89-8.46a.13.13,0,0,1,.25.08c-1,2.8-1.6,5.77-2.43,8.62s-1.66,5.74-2.46,8.61c-1.61,5.74-3.22,11.48-4.7,17.25C248.31,275.89,248.08,275.81,248.11,275.65Z" style="fill:#263238"></path><path d="M222.38,241.69c5.67,11.13,28.32,39,28.32,39L259.25,251l-39.54-25.4C217.31,227.8,218,233,222.38,241.69Z" style="opacity:0.1"></path><path d="M269.26,291c0,.33-.08.67-.13,1s-.09.61-.15.9a8.74,8.74,0,0,1-.17.89l-.15.7c-.2.89-.44,1.76-.71,2.6-.18.58-.38,1.15-.58,1.7l0,.1c-.11.3-.23.58-.34.87s-.23.56-.34.83l-.36.81c-.11.26-.23.52-.36.77-.24.51-.48,1-.72,1.45-.72,1.38-1.43,2.55-2,3.45l-.28.43c-.73,1.09-1.21,1.69-1.21,1.69l4.5,30.52,1.72,11.66H156.06v-6.92c.27-1.6.54-3.18.82-4.74,4.51-25.66,9.67-46.35,15.08-62.71q3.1-9.39,6.29-16.94c.52-1.24,1.05-2.44,1.57-3.61.1-.23.2-.45.31-.67h0c4.75-10.5,9.53-18.07,14.07-23.11a32,32,0,0,1,6.59-5.51h0c.76-.48,1.56-.93,2.38-1.36l.26-.13h0c5.39-2.74,12-4.17,18.81-1.89q.38.12.75.27l.66.27h0a1.36,1.36,0,0,1,.25.11c.36.15.72.32,1.08.49s.71.36,1.07.56l.79.46h0a1,1,0,0,1,.26.16c.56.33,1.11.7,1.66,1.1h0c.15.1.29.21.44.33.35.27.7.54,1.05.83s.69.58,1,.89c1.54,1.39,3.2,3.07,4.93,5l.65.72c.44.48.88,1,1.32,1.49s.9,1,1.35,1.56l.66.77h0c2,2.43,4.13,5.05,6.2,7.76l.69.9c2,2.65,4,5.37,5.91,8l.6.83c1,1.4,1.94,2.78,2.86,4.13h0c.15.21.29.42.42.62q1.19,1.74,2.28,3.39l.55.83c.42.64.83,1.27,1.22,1.89,1,1.48,1.84,2.87,2.63,4.16l.63,1c1.36,2.26,2.39,4.12,3,5.4a23.24,23.24,0,0,1,1.43,4c.14.52.25,1,.35,1.54A25.23,25.23,0,0,1,269.26,291Z" style="fill: rgb(255, 196, 192);"></path><path d="M269.45,339.74H156.06v-6.88a416.07,416.07,0,0,1,11.7-51.54A204.72,204.72,0,0,1,176,258.69c.53-1.24,1.08-2.43,1.62-3.59l.33-.69c5-10.52,10-17.5,14.51-22.42a28.09,28.09,0,0,1,5.64-4.6h0c.78-.5,1.61-1,2.47-1.42h0c.86-.45,1.77-.87,2.7-1.25a26.69,26.69,0,0,1,19-.92q.38.12.75.27l.66.27h0l.26.11c.36.15.72.32,1.08.49s.71.36,1.07.56l.79.46.27.16c.55.34,1.09.7,1.63,1.1.17.11.32.22.48.34.35.27.7.54,1.05.83s.69.58,1,.89c1.54,1.39,3.2,3.07,4.93,5l.65.72c.44.48.88,1,1.32,1.49l1.35,1.56.66.77h0c2,2.43,4.13,5.05,6.2,7.76l.69.9c2,2.65,4,5.37,5.91,8l.6.83c1,1.4,1.94,2.78,2.86,4.13h0c.15.21.29.42.42.62q1.19,1.74,2.28,3.39l.55.83c.42.64.83,1.27,1.22,1.89,1,1.48,1.84,2.87,2.63,4.16l.63,1c1.36,2.26,2.39,4.12,3,5.4a23.24,23.24,0,0,1,1.43,4c.14.52.25,1,.35,1.54a25.23,25.23,0,0,1,.24,7.68c0,.33-.08.67-.13,1s-.09.61-.15.9a8.74,8.74,0,0,1-.17.89l-.15.7c-.2.89-.44,1.76-.71,2.6-.19.58-.38,1.15-.58,1.7l0,.1c-.11.3-.23.58-.34.87s-.23.56-.34.83l-.36.81c-.11.26-.23.52-.36.77-.24.51-.48,1-.72,1.45-.72,1.38-1.43,2.55-2,3.45l-.28.43c-.73,1.09-1.21,1.69-1.21,1.69Z" style="fill:#E427FF"></path><path d="M263.37,315.81a56.44,56.44,0,0,1-9.65,8.4,31.36,31.36,0,0,1-17.49,5.65,35.29,35.29,0,0,1-9.2-1.29,61.38,61.38,0,0,1-8.72-3.17c-5.33-2.36-10.42-5.21-15.56-7.92l-.95-.5-.05,0c-2.88-1.52-5.78-3-8.73-4.38l-.78-.36c-2.37-1.09-4.77-2.09-7.22-3A50,50,0,0,0,167,306l-1.15,0-1.14.09c-.77.09-1.54.09-2.29.24l-1.22.19c0-.2.09-.4.13-.61l1-.15c.77-.15,1.55-.15,2.32-.23l1.17-.09H167a50.65,50.65,0,0,1,18.19,3.4c2.53.94,5,2,7.45,3.16.26.11.51.23.77.36,2.89,1.37,5.73,2.86,8.55,4.38l1,.53.94.5c4.79,2.6,9.59,5.2,14.59,7.37a59.5,59.5,0,0,0,8.69,3.1,34.66,34.66,0,0,0,9.11,1.22,30.88,30.88,0,0,0,17.18-5.71,58.06,58.06,0,0,0,9.77-8.7Zm-1.1-4.35a71.47,71.47,0,0,1-10.7,6.24,50.24,50.24,0,0,1-16.7,4.53,61.08,61.08,0,0,1-17.31-1.31c-4.94-1-9.8-2.33-14.66-3.65l-1.15-.32-1.12-.3c-3.42-.92-6.86-1.78-10.33-2.48-.36-.07-.71-.15-1.07-.21q-2.83-.56-5.71-.93a70.52,70.52,0,0,0-17.48-.16q-3.25.38-6.45,1.07c0,.22-.09.44-.13.66.79-.18,1.57-.36,2.35-.52,1.42-.25,2.85-.51,4.29-.67a70.6,70.6,0,0,1,17.37,0q2.64.33,5.27.81l1.1.19c3.6.69,7.17,1.55,10.72,2.47l2.19.57,1.09.29c4.54,1.21,9.06,2.47,13.66,3.43a61.3,61.3,0,0,0,17.4,1.42,50.6,50.6,0,0,0,16.9-4.42,69.42,69.42,0,0,0,10.64-6.07Zm2-11.73c-5.67-.69-11.32-1.59-17-2.12a83.31,83.31,0,0,0-17.15,0,73.83,73.83,0,0,0-16.69,4,102.78,102.78,0,0,0-15.51,7.35q-2.69,1.51-5.32,3.08c-.13.06-.25.14-.37.21l-3,1.75-.49.29c-1.88,1.08-3.77,2.15-5.69,3.18a70,70,0,0,1-15.75,6.42,79.78,79.78,0,0,1-10,1.8c-.05.25-.1.51-.14.76l1.84-.24a76.83,76.83,0,0,0,8.46-1.6,69.11,69.11,0,0,0,15.92-6.47c2.17-1.18,4.31-2.41,6.43-3.66l.46-.27,2.72-1.6.36-.21c1.62-1,3.24-1.92,4.88-2.85a107.73,107.73,0,0,1,15.38-7.42A72.44,72.44,0,0,1,230.18,298a81.93,81.93,0,0,1,17.08-.08c5.69.48,11.34,1.33,17,2.1l2.51.33.12-.29C266,300,265.16,299.84,264.3,299.73ZM245,244.67c-.69.13-1.37.27-2,.44a67.41,67.41,0,0,0-17.09,7.23c-2.8,1.57-5.54,3.23-8.29,4.88l-2.71,1.6-.37.22-.39.23q-2.1,1.23-4.23,2.4a72.66,72.66,0,0,1-8.32,3.95,33.19,33.19,0,0,1-8.85,2.25,23.85,23.85,0,0,1-4.55,0,35.24,35.24,0,0,1-4.5-.84,10.52,10.52,0,0,1-1.11-.26l-1.1-.35-2.18-.7c-1.44-.53-2.85-1.15-4.26-1.74l-1-.5c-.08.21-.17.42-.25.64l1,.49c.7.32,1.43.61,2.14.92s1.42.63,2.16.87l3.33,1.08c.37.12.76.17,1.14.26a37.31,37.31,0,0,0,4.6.87,25.34,25.34,0,0,0,4.69,0,34,34,0,0,0,9.06-2.28,69.48,69.48,0,0,0,8.4-4q2.37-1.31,4.69-2.69l.38-.23,2.58-1.54,2.6-1.57c1.9-1.15,3.8-2.28,5.72-3.37a68.56,68.56,0,0,1,16.88-7.28c.76-.19,1.52-.36,2.29-.49C245.26,245,245.14,244.83,245,244.67Zm5.12,6.75a53.07,53.07,0,0,0-7.46,0,80.26,80.26,0,0,0-17.17,3.35q-2.51.73-5,1.53l-2.91.92c-1.41.44-2.81.88-4.22,1.3l-.57.17c-1.34.4-2.67.78-4,1.14A54.14,54.14,0,0,1,191.64,262a52,52,0,0,1-8.55-1.38q-3.59-.87-7.06-2.05l0,.1-.24.55c2.36.82,4.75,1.51,7.17,2.11,1.42.36,2.86.59,4.3.89a37.75,37.75,0,0,0,4.37.52,54,54,0,0,0,17.38-2.2c1.63-.44,3.24-.92,4.85-1.42l.54-.16.51-.16,3-.95c2.59-.83,5.18-1.67,7.79-2.44a82.14,82.14,0,0,1,17-3.46,50.91,50.91,0,0,1,7.81,0ZM268,279.67a70.84,70.84,0,0,1-12.12-1.76,82.26,82.26,0,0,1-16-5.88c-5.16-2.43-10.17-5.2-15.21-7.9-3.07-1.64-6.17-3.23-9.33-4.72l-.81-.37-.14-.06-1-.46c-1.38-.63-2.78-1.23-4.19-1.8a95.7,95.7,0,0,0-16.41-5c-1.41-.27-2.81-.58-4.22-.83s-2.83-.44-4.25-.61-2.72-.3-4.08-.4c-.1.21-.21.41-.32.62a89.81,89.81,0,0,1,12.76,1.76A95.59,95.59,0,0,1,209,257.11c1.27.5,2.53,1,3.77,1.58.35.14.69.3,1,.45l.29.13.82.37c3.23,1.48,6.42,3.08,9.58,4.73,5.08,2.63,10.06,5.44,15.22,7.92a82.78,82.78,0,0,0,16.06,6,70.42,70.42,0,0,0,12.4,1.91C268.14,280,268.07,279.85,268,279.67Z" style="fill:#fff"></path><path d="M223.55,304.92a109,109,0,0,1,15.93,1.44c2.61.48,5.18,1.06,7.75,1.71,1.28.32,2.57.6,3.86.87a16.78,16.78,0,0,0,4.11.47.1.1,0,1,1,0,.19,28.38,28.38,0,0,1-3.91.21,28.07,28.07,0,0,1-3.77-.43c-2.65-.45-5.28-1-7.93-1.51-5.34-1-10.68-1.93-16.09-2.51C223.27,305.33,223.3,304.91,223.55,304.92Z" style="fill:#263238"></path><path d="M210.79,310.56a117.65,117.65,0,0,1,13.1-1.58c2.2-.13,4.39-.14,6.59-.09,1.06,0,2.11.07,3.16.13s2.3.28,3.46.33c.12,0,.13.19,0,.19-1.09,0-2.19.16-3.28.21l-3.29.15c-2.19.11-4.38.24-6.58.32-4.39.17-8.77.38-13.15.7C210.57,310.94,210.56,310.6,210.79,310.56Z" style="fill:#263238"></path><path d="M209.05,235.27c-.86,2.31-2.7,5.18-5.82,8.67-5,5.64-11.41,12.47-18.57,20l-.09.1-.28.29c-3.91,4.08-8,8.36-12.33,12.74l-4.2,4.29c-3.83,3.91-7.75,7.88-11.7,11.85V242.43c12.57-5.36,24.64-10.07,35.22-13.5a36.93,36.93,0,0,1,6.81-1.54,25.73,25.73,0,0,1,2.7-.21h0a21,21,0,0,1,2.27.06C207.94,227.68,211,230.09,209.05,235.27Z" style="fill: rgb(255, 196, 192);"></path><path d="M210.9,236.79a43.61,43.61,0,0,1-3.12,4.58c-3.17,4.14-7.94,9.36-12.19,13.84l-.09.09c-5.1,5.36-9.45,9.62-9.45,9.62l-1.48-.92-2.66-1.65h0l-3.62-2.25-2.26-1.4-19.93-12.34v-5.07c9.64-4,31-12.75,40.38-14.62,1.48-.3,2.86-.52,4.13-.69.93-.12,1.8-.21,2.62-.27h.26C213.33,225.08,215.27,229.29,210.9,236.79Z" style="fill:#E427FF"></path><path d="M189.19,261.79l-.66.66c-.44-.06-.87-.13-1.31-.21-1.44-.3-2.88-.53-4.3-.89-1.6-.39-3.2-.83-4.77-1.32L176,258.69l-.4-.25q3.69,1.28,7.5,2.2C185.11,261.08,187.14,261.53,189.19,261.79Zm3.57-10.09c-1.41-.27-2.81-.58-4.22-.83s-2.83-.44-4.25-.61c-2.85-.33-5.71-.58-8.57-.65-4.75-.17-9.5,0-14.23.1l.8.5c4.48-.09,8.94-.17,13.4,0a99.66,99.66,0,0,1,17,2c1.58.33,3.15.69,4.71,1.09l.4-.42C196.1,252.46,194.44,252.06,192.76,251.7Z" style="fill:#fff"></path><path d="M181.79,262.3c.42.16,4.07,2.26,4.29,2.49,1.69-1.74,3.35-3.5,5.06-5.22.85-.86,1.72-1.71,2.6-2.54s2-2,2.89-2.83c.13-.12.31,0,.18.17-1,1.17-1.8,2-2.68,3s-1.6,1.78-2.42,2.64c-1.75,1.82-3.54,3.83-5.37,5.57a41.4,41.4,0,0,1-4.63-3.17C181.65,262.37,181.72,262.27,181.79,262.3Z" style="fill:#263238"></path><path d="M156.77,242.23c5.29,2.79,10.53,5.65,15.65,8.74q3.83,2.33,7.58,4.75c2.51,1.62,4.85,3.5,7.37,5.08.14.08,0,.3-.15.21-2.43-1.71-5.12-3.11-7.64-4.68s-5.07-3.15-7.62-4.7c-5.09-3.1-10.17-6.21-15.33-9.19C156.48,242.35,156.63,242.15,156.77,242.23Z" style="fill:#263238"></path><path d="M184,230.36S211.76,254,226,250.65s14.21-20.88,14.21-20.88-13.2-8.38-27.43-7.72S184,230.36,184,230.36Z" style="fill: rgb(255, 196, 192);"></path><path d="M203,228.14c.5,2.16,11.6,15.19,21.3,13.08,6.82-1.48,2.5-15.06,2.5-15.06l4.38-19.45-24.39-15.54S202.84,227.23,203,228.14Z" style="fill: rgb(255, 196, 192);"></path><path d="M205.44,203.83a38,38,0,0,0,21.64,21.25l4.15-18.37-24.4-15.54S206.2,196.89,205.44,203.83Z" style="fill:#263238"></path><path d="M255.94,175.76c5.48,32.19-13.18,39.11-20.13,40.29-6.3,1.07-27.9,3.9-36.68-27.56s4.45-44.19,18.74-47.39S250.46,143.56,255.94,175.76Z" style="fill: rgb(255, 196, 192);"></path><path d="M246.84,171.64c-.77-.08-1.46-.27-2.22-.42a3.7,3.7,0,0,1-2.17-.87,1.17,1.17,0,0,1,0-1.42,2.89,2.89,0,0,1,2.83-.72,4.22,4.22,0,0,1,2.68,1.44A1.24,1.24,0,0,1,246.84,171.64Z" style="fill:#263238"></path><path d="M224,174.47c.75-.17,1.42-.45,2.15-.69a3.74,3.74,0,0,0,2.06-1.12,1.18,1.18,0,0,0-.15-1.41,2.87,2.87,0,0,0-2.9-.38,4.22,4.22,0,0,0-2.49,1.76A1.24,1.24,0,0,0,224,174.47Z" style="fill:#263238"></path><path d="M229.15,181.1c0-.08-.16.12-.15.21.35,2.2.38,4.78-1.52,5.76-.06,0,0,.14,0,.12C229.91,186.54,229.83,183.12,229.15,181.1Z" style="fill:#263238"></path><path d="M226.89,179c-3.59.18-3,7.34.36,7.17S229.89,178.89,226.89,179Z" style="fill:#263238"></path><path d="M225.51,179.54c-.59.46-1.14,1.23-1.88,1.37s-1.59-.53-2.22-1.2c-.07-.07-.12,0-.12.09.1,1.38.75,2.74,2.24,2.81s2.21-1.23,2.43-2.63C226,179.72,225.75,179.36,225.51,179.54Z" style="fill:#263238"></path><path d="M243.07,178.91c0-.09.18.09.19.18.12,2.22.64,4.75,2.72,5.3.06,0,.06.13,0,.13C243.49,184.39,242.83,181,243.07,178.91Z" style="fill:#263238"></path><path d="M244.84,176.42c3.54-.59,4.46,6.53,1.18,7.08S241.87,176.91,244.84,176.42Z" style="fill:#263238"></path><path d="M246.29,176.62c.67.32,1.37.95,2.13.93s1.44-.86,1.91-1.65c0-.08.12,0,.14.07.19,1.36-.15,2.83-1.59,3.22s-2.42-.73-2.94-2.05C245.84,176.89,246,176.49,246.29,176.62Z" style="fill:#263238"></path><path d="M231,198.68c.41.62.78,1.43,1.56,1.67a6,6,0,0,0,2.45,0c.08,0,.13.07.07.13a3,3,0,0,1-3,.59,2.37,2.37,0,0,1-1.3-2.29C230.72,198.6,230.9,198.59,231,198.68Z" style="fill:#263238"></path><path d="M240.93,189.6s.78,3.27.94,4.83c0,.14-.36.25-.89.33a.06.06,0,0,1-.06,0,7.45,7.45,0,0,1-7.47-2.06c-.12-.14.06-.32.21-.24a11.21,11.21,0,0,0,7,1.27c.07-.44-1.53-5.54-1.28-5.58a13.77,13.77,0,0,1,3.62.45c-1.44-6.84-4-13.39-5.29-20.23,0-.24.31-.35.4-.14,3.13,6.69,5,14.52,6.62,21.55C244.91,190.66,241.58,189.81,240.93,189.6Z" style="fill:#263238"></path><path d="M239.86,194A8.11,8.11,0,0,1,237,197a3.75,3.75,0,0,1-2.16.44c-1.63-.19-1.87-1.63-1.76-2.9a8.54,8.54,0,0,1,.44-2A10.43,10.43,0,0,0,239.86,194Z" style="fill:#263238"></path><path d="M237.28,196.79l-.25.15a3.59,3.59,0,0,1-2.15.45,1.84,1.84,0,0,1-1.71-1.56,1.36,1.36,0,0,1,0-.21,2.19,2.19,0,0,1,0-.27c0-.09,0-.19,0-.31a3.83,3.83,0,0,1,2.34,0A3.51,3.51,0,0,1,237.28,196.79Z" style="fill:#ff9cbd"></path><path d="M201.24,188.89c5.3-.13,4.94-12.37,4.94-12.37s10.7-1.05,12.67-16.78a23.82,23.82,0,0,1-3.45,13.19s19.11-2.82,25.45-19.4c0,0-2.35,8.36-5,11.51,0,0,7.69-3,10.9-9.81,0,0,4.22,8.77,7,11,0,0-4.12-32.91-34.33-26.31,0,0-19,3.2-24.35,19S201.24,188.89,201.24,188.89Z" style="fill:#263238"></path><path d="M204.63,187.84s-7.94-9.58-12.34-6.66,2.15,17.2,7.73,18.77a5.52,5.52,0,0,0,7.13-3.57Z" style="fill: rgb(255, 196, 192);"></path><path d="M194.27,185.23a.07.07,0,0,0,0,.14c3.92,1.23,6.21,4.58,7.91,8.12-1.24-1.31-2.84-2-4.61-.46-.1.08,0,.23.12.2a3.37,3.37,0,0,1,3.82.87,15.66,15.66,0,0,1,2,2.87c.21.32.81.09.64-.29l0-.09C203.82,191.75,199.51,185.29,194.27,185.23Z" style="fill:#263238"></path><circle cx="199.06" cy="374.52" r="15.33" transform="translate(-206.52 250.45) rotate(-45)" style="fill:#455a64"></circle><path d="M199.07,383.09a.35.35,0,0,1-.34-.35v-4.08a.35.35,0,1,1,.69,0v4.08A.35.35,0,0,1,199.07,383.09Z" style="fill:#fff"></path><path d="M201.3,383.09h-4.47a.35.35,0,0,1,0-.7h4.47a.35.35,0,1,1,0,.7Z" style="fill:#fff"></path><path d="M201.94,368.83v5.93a2.88,2.88,0,1,1-5.75,0v-5.93a2.88,2.88,0,0,1,2.87-2.88,2.87,2.87,0,0,1,2.88,2.74Z" style="fill:#fff"></path><path d="M199.06,379a4.16,4.16,0,0,1-4.17-4.17v-2.51a.34.34,0,0,1,.35-.34.35.35,0,0,1,.35.34v2.51a3.47,3.47,0,0,0,3.63,3.47,3.57,3.57,0,0,0,3.32-3.59v-2.39a.35.35,0,0,1,.7,0v2.39a4.23,4.23,0,0,1-4,4.29Z" style="fill:#fff"></path><circle cx="300.94" cy="374.52" r="15.33" style="fill:#455a64"></circle><path d="M309.87,372.57v3.9a1.08,1.08,0,0,1-1.34,1l-1.74-.45-.9-.23V372.2l2.33-.59.31-.08A1.07,1.07,0,0,1,309.87,372.57Z" style="fill:#fff"></path><rect x="294.31" y="369.74" width="10.68" height="9.57" rx="1.97" style="fill:#fff"></rect><circle cx="250" cy="374.52" r="26.67" transform="translate(-57.21 45.3) rotate(-9.3)" style="fill:#fff"></circle><circle cx="250" cy="374.52" r="23.69" transform="translate(-187.49 481.14) rotate(-69.97)" style="fill:#E427FF"></circle><path d="M263.45,374.66a8.18,8.18,0,0,0-.36-1.12c-.18-.36-.43-.69-.64-1l-.87-.87c-.36-.26-.71-.53-1.08-.77a12.78,12.78,0,0,0-4.65-1.81,30,30,0,0,0-11.71,0,13,13,0,0,0-4.71,1.83c-.35.24-.69.5-1,.75l-.9.9c-.14.2-.28.4-.41.61a3.08,3.08,0,0,0-.52,1.55h7.63a.27.27,0,0,0,.26-.17,2.55,2.55,0,0,1,2.18-1.41,53.17,53.17,0,0,1,6.68,0,2.55,2.55,0,0,1,2.19,1.4.3.3,0,0,0,.3.17h7.39Z" style="fill:#fff"></path><path d="M236.56,376.23s0,.11,0,.18c0,.87,0,1.74,0,2.61a.84.84,0,0,0,.95,1h5.64a.85.85,0,0,0,1-1v-2.22c0-.2,0-.39,0-.56Z" style="fill:#fff"></path><path d="M263.38,376.2h-7.46c0,1-.07,1.9-.08,2.85a.83.83,0,0,0,.92.89h5.71a.84.84,0,0,0,.93-.93c0-.88,0-1.76,0-2.65A.76.76,0,0,0,263.38,376.2Z" style="fill:#fff"></path></g><g id="freepik--character-2--inject-129"><rect x="280.59" y="103.75" width="54.8" height="74.13" style="fill:#ebebeb"></rect><path d="M311,146.2l-.76.7-1,.84-.33.28c-1.95,1.67-4.09,3.36-6.32,5h0c-1.71,1.26-3.48,2.5-5.25,3.68h0c-6.21,4.14-12.48,7.53-16.78,8.77V147c1.46-.35,3.2-.79,5.11-1.27,6.62-1.7,15.18-4,20.68-5.39,1.09-.27,2-.46,2.87-.59l.42-.06.41-.05a9.1,9.1,0,0,1,2.26,0c1,.12,1.59.49,1.8,1C314.68,141.92,313,144.23,311,146.2Z" style="fill:#f7a9a0"></path><path d="M297.5,156.83,285,145s17-4.91,24.4-5.64c7.73-.75,9.54,1.52,1.44,7.88S297.5,156.83,297.5,156.83Z" style="fill:#E427FF"></path><path d="M303.05,146.08l-.06.06a.85.85,0,0,1-.33.28.75.75,0,0,1-.44.07.72.72,0,0,1-.34-.11,1,1,0,0,0-1.15.08,1.1,1.1,0,0,0-.33.46c0,.17-.12.32-.17.49.12-.12.23-.25.35-.38a1,1,0,0,1,.33-.3.76.76,0,0,1,.76,0h0a1,1,0,0,0,1.14,0,1.07,1.07,0,0,0,.34-.46c0-.1.07-.18.1-.28a1.8,1.8,0,0,0,.08-.21C303.24,145.86,303.15,146,303.05,146.08Zm11.83-2.81-.17.11a.94.94,0,0,0-.32.46c0,.1-.07.18-.1.27.3-.32.56-.62.79-.91ZM292.14,143l-.24.06h0a.7.7,0,0,1,0,.29.81.81,0,0,1-.55.53,1,1,0,0,0-.67.5.87.87,0,0,0-.12.34,1,1,0,0,0,.08.57c.07.15.14.31.22.46a4.35,4.35,0,0,0,0-.51.9.9,0,0,1,0-.44.83.83,0,0,1,.57-.52,1.07,1.07,0,0,0,.41-.21,1,1,0,0,0,.35-.66A.85.85,0,0,0,292.14,143Zm15.35-3a1,1,0,0,1,0-.39l-.31,0a1,1,0,0,0,.09.39l0,.06a3,3,0,0,0,.19.41,3.46,3.46,0,0,0,0-.45Zm-14.87,12.24.12.12a1.47,1.47,0,0,0,.28-.14Z" style="fill:#fff"></path><path d="M298.7,153.87c-.27-.32-.58-.6-.87-.89l-.91-.89c-.61-.61-1.23-1.21-1.85-1.8-1.24-1.18-2.48-2.37-3.75-3.53-.35-.32-.69-.64-1.05-.95s-.77-.63-1.15-.95c0,0-.05,0,0,0,.29.31.57.63.87.94s.61.62.93.92c.61.6,1.24,1.19,1.86,1.78,1.24,1.16,2.47,2.32,3.72,3.45l1.06.94c.37.33.73.69,1.12,1C298.68,153.92,298.71,153.89,298.7,153.87Z" style="fill:#263238"></path><path d="M310.8,147.22c-8.14,6.39-13.3,9.61-13.3,9.61l-5.56-5.26,23.55-11.64C317,141,315.71,143.36,310.8,147.22Z" style="opacity:0.1"></path><path d="M335.39,172.94v4.89H296.82a143.08,143.08,0,0,1,5.34-23.41,2.25,2.25,0,0,0,.08-.24l.24-.72h0c0-.14.1-.27.14-.42a69.88,69.88,0,0,1,3.41-8.42h0a32.06,32.06,0,0,1,2.17-3.77,4.9,4.9,0,0,1,1.06-1.12,5.48,5.48,0,0,1,.49-.35h0l.09-.06h0a9.36,9.36,0,0,1,5.33-1.16h0a10,10,0,0,1,4.67,1.36,6.2,6.2,0,0,1,1.22,1,4.23,4.23,0,0,1,.44.51,22.3,22.3,0,0,1,1.31,1.93h0c.32.5.63,1,.95,1.58a.41.41,0,0,1,.05.09c0,.09.11.19.15.28h0a108,108,0,0,1,5.65,12.19h0l.15.36c.33.82.65,1.64,1,2.46h0a1.34,1.34,0,0,1,.07.18c.34.89.68,1.79,1,2.68C333.16,166.27,334.36,169.76,335.39,172.94Z" style="fill:#E427FF"></path><path d="M312.88,151.58a.8.8,0,0,1-.44,0,.78.78,0,0,1-.51-.57,1,1,0,0,0-.88-.76,1.08,1.08,0,0,0-.55.09c-.16.08-.32.13-.47.22a4.26,4.26,0,0,0,.51,0,1,1,0,0,1,.45,0,.76.76,0,0,1,.53.54,1,1,0,0,0,.85.79,1,1,0,0,0,.56-.08c.15-.07.32-.13.47-.21A4.51,4.51,0,0,0,312.88,151.58Zm-10.1,15.91a.91.91,0,0,1-.44,0,.79.79,0,0,1-.51-.57,1,1,0,0,0-.88-.77,1,1,0,0,0-.55.1,4,4,0,0,0-.47.22,4.26,4.26,0,0,0,.51,0,1.1,1.1,0,0,1,.45,0,.79.79,0,0,1,.53.55,1,1,0,0,0,.85.79,1,1,0,0,0,.56-.08c.15-.07.31-.13.47-.22Zm11.4,10a1.08,1.08,0,0,0-.55.09l-.47.22a4.61,4.61,0,0,0,.52,0,1.05,1.05,0,0,1,.44,0l0,0h.66A.93.93,0,0,0,314.18,177.5Zm6.71-14a1.09,1.09,0,0,1-.45,0,.81.81,0,0,1-.51-.58,1,1,0,0,0-.87-.77,1.12,1.12,0,0,0-.56.11c-.15.07-.32.13-.47.21a4.52,4.52,0,0,0,.52,0,1,1,0,0,1,.45,0,.77.77,0,0,1,.53.55,1,1,0,0,0,.84.79,1.12,1.12,0,0,0,.56-.08c.16-.08.32-.14.47-.23Zm8.77-6.41h0l-.09,0a.34.34,0,0,0-.15.06l-.14.08a1.06,1.06,0,0,0-.34.45c-.05.17-.12.32-.17.49.13-.12.24-.25.35-.37a.9.9,0,0,1,.34-.29.93.93,0,0,1,.35-.08Zm-17.3,10.66c-.08-.16-.13-.32-.22-.47a4.18,4.18,0,0,0,0,.51,1.09,1.09,0,0,1,0,.45.79.79,0,0,1-.55.53,1.06,1.06,0,0,0-.79.85,1,1,0,0,0,.08.56,4,4,0,0,0,.22.47,4.52,4.52,0,0,0,0-.52.91.91,0,0,1,0-.44.78.78,0,0,1,.57-.51,1,1,0,0,0,.76-.88A.91.91,0,0,0,312.36,167.73Zm11.49-23.14a.41.41,0,0,0-.05-.09.88.88,0,0,0-.12.21.62.62,0,0,0-.07.23.79.79,0,0,0,0,.4.42.42,0,0,0,0,.16l.11.24.12.23a2.17,2.17,0,0,0,0-.26,2.26,2.26,0,0,1,0-.26.76.76,0,0,1,.1-.58h0ZM322,152.87c-.08-.16-.13-.32-.22-.47,0,.18,0,.35,0,.52a1,1,0,0,1,0,.44.82.82,0,0,1-.55.54,1,1,0,0,0-.79.84,1,1,0,0,0,.08.57,4.81,4.81,0,0,0,.22.46,4.61,4.61,0,0,0,0-.52.92.92,0,0,1,0-.44.78.78,0,0,1,.57-.51,1,1,0,0,0,.76-.87A.93.93,0,0,0,322,152.87Zm-19.72,1.39,0-.08a2.25,2.25,0,0,1-.08.24c-.12.4-.24.8-.37,1.21a1.05,1.05,0,0,0,.59-.81A1,1,0,0,0,302.28,154.26Zm14.7-11.2a.93.93,0,0,1-.34.29.81.81,0,0,1-.77,0,1.06,1.06,0,0,0-.78-.11.76.76,0,0,0-.21.08l-.17.11a.94.94,0,0,0-.32.46c0,.1-.07.18-.1.27s0,0,0,0a1.8,1.8,0,0,0-.08.21c.13-.12.24-.26.35-.38a1,1,0,0,1,.33-.3.78.78,0,0,1,.77,0,1.06,1.06,0,0,0,1.16,0,1,1,0,0,0,.33-.45c.06-.17.13-.32.18-.49C317.2,142.8,317.1,142.94,317,143.06Zm-6.67,15.13a.91.91,0,0,1-.34.29.76.76,0,0,1-.77,0,1,1,0,0,0-1.15.09.94.94,0,0,0-.33.45,4.75,4.75,0,0,0-.17.49c.12-.12.23-.25.35-.38a.82.82,0,0,1,.33-.29.76.76,0,0,1,.76,0,1,1,0,0,0,1.15,0,.89.89,0,0,0,.34-.46c.06-.16.13-.31.18-.48C310.53,157.94,310.43,158.07,310.31,158.19Zm-4.38,19.64h0a.43.43,0,0,1,0-.05A.12.12,0,0,0,305.93,177.83Zm20.6-6.71a1,1,0,0,1-.34.28.78.78,0,0,1-.77,0,1,1,0,0,0-1.16.07,1,1,0,0,0-.32.47c-.06.16-.13.32-.18.48.13-.12.23-.25.35-.38a1.14,1.14,0,0,1,.33-.3.78.78,0,0,1,.77,0,1,1,0,0,0,1.15,0,1,1,0,0,0,.34-.46c.06-.16.13-.32.18-.49A4.25,4.25,0,0,0,326.53,171.12Z" style="fill:#fff"></path><path d="M335.39,153.73v22.66c-2.33-4.24-4.62-8.54-6.68-12.61h0a.33.33,0,0,1,0-.12.56.56,0,0,1-.05-.08,142.58,142.58,0,0,1-6.54-14.52c-1.61-4.43-.88-6.13.77-6.14h0a4.81,4.81,0,0,1,2.09.64c.1,0,.21.11.31.16a16.57,16.57,0,0,1,3.78,3.08c.6.65,1.21,1.33,1.86,2a.52.52,0,0,0,.1.11C332.38,150.41,333.85,152,335.39,153.73Z" style="fill:#f7a9a0"></path><path d="M335.39,150.39v11.37l-3.53,1-2,.56h0l-1.21.33-.38.11a.86.86,0,0,1-.07-.12h0l0,0c-.45-.78-2.46-4.34-5.26-10.27,0,0,0,0,0-.05s0,0,0-.06c-.6-1.28-1.25-2.66-1.9-4.14a26.43,26.43,0,0,1-1.85-5.16h0c0-.11,0-.21-.07-.32a6.11,6.11,0,0,1-.11-1.64,1.54,1.54,0,0,1,.93-1.43,2.32,2.32,0,0,1,1.22-.05,14,14,0,0,1,4.8,2.31A98.27,98.27,0,0,1,335.39,150.39Z" style="fill:#E427FF"></path><path d="M333.51,150a.84.84,0,0,1-.45,0,.79.79,0,0,1-.51-.58,1,1,0,0,0-1.43-.66l-.22.09-.24.14c.12,0,.23,0,.34,0h.17a.94.94,0,0,1,.45,0,.75.75,0,0,1,.52.54,1,1,0,0,0,1.41.71A3.38,3.38,0,0,0,334,150,3,3,0,0,0,333.51,150Zm-2,6.89a1,1,0,0,1-.34.3.74.74,0,0,1-.76,0,1.06,1.06,0,0,0-.78-.11l-.09,0a.34.34,0,0,0-.15.06l-.14.08a1.06,1.06,0,0,0-.34.45c-.05.17-.13.32-.17.49.13-.12.24-.25.35-.37a.9.9,0,0,1,.34-.29.93.93,0,0,1,.35-.08.72.72,0,0,1,.42.13,1.06,1.06,0,0,0,1.16-.09,1,1,0,0,0,.32-.46c.06-.16.13-.32.18-.49C331.76,156.64,331.65,156.78,331.54,156.9Zm-6.37-13.83a4,4,0,0,0-.22-.47c0,.17,0,.35,0,.51a.89.89,0,0,1,0,.44h0a.74.74,0,0,1-.54.53,1,1,0,0,0-.61.41.88.88,0,0,0-.12.21.62.62,0,0,0-.07.23.79.79,0,0,0,0,.4.75.75,0,0,0,.05.16,2.44,2.44,0,0,0,.1.24l.12.23a2.17,2.17,0,0,0,0-.26,2.28,2.28,0,0,0,0-.26.91.91,0,0,1,0-.44.64.64,0,0,1,.08-.14h0a.83.83,0,0,1,.5-.36,1,1,0,0,0,.75-.79s0-.05,0-.09A1,1,0,0,0,325.17,143.07Z" style="fill:#fff"></path><path d="M335.39,158.56v.32c-1.32.36-2.64.72-4,1.06l-.57.14c-.26.08-.53.14-.79.21-.48.12-1,.27-1.46.35a0,0,0,0,1,0,0c.39-.16.79-.26,1.18-.38l1-.32.21,0c.82-.26,1.65-.5,2.48-.73Z" style="fill:#263238"></path><path d="M322.29,153.7s0-.07,0,0a11.81,11.81,0,0,1,1.24,1.58c-.13-.28-.27-.55-.4-.83-.42-.9-.82-1.8-1.24-2.7,0,0,0-.06.05,0,.84,1.51,1.74,3,2.54,4.53s1.59,3.08,2.36,4.63c.43.86.89,1.95,1.31,2.8.5-.06,1.11-.26,1.65-.34,0,0,0,.07,0,.08-.55.16-1.17.45-1.76.56-.08,0-3-5.46-4.23-8.11C323.32,155.13,322.79,154.42,322.29,153.7Z" style="fill:#263238"></path><path d="M311.13,146.26c2.38.76,6.82-2.61,8.7-5.48a49,49,0,0,0-.06-5.06c0-1.62,0-3.42.12-5.07,0-.34-10.53,1.7-10.53,1.7a26.52,26.52,0,0,1,.5,6.4,3.61,3.61,0,0,1-.12.67.81.81,0,0,0,0,.11C309.4,140.79,308.84,145.52,311.13,146.26Z" style="fill:#f7a9a0"></path><path d="M319.25,130.65c-.7,2.74-3,9.33-8.48,9a6.49,6.49,0,0,1-1.06-.14.81.81,0,0,1,0-.11,4.68,4.68,0,0,0,.12-.67,26,26,0,0,0-.5-6.41S317,130.88,319.25,130.65Z" style="fill:#263238"></path><path d="M322.5,119.35c.71,3.77-2.39,14.1-5.24,16.17-4.14,3-10.34,2.63-12.74-2.21s2-18.09,5.09-19.91C314.23,110.73,321.45,113.77,322.5,119.35Z" style="fill:#f7a9a0"></path><path d="M322.5,119.35c.71,3.77-2.39,14.1-5.24,16.17-4.14,3-10.34,2.63-12.74-2.21s2-18.09,5.09-19.91C314.23,110.73,321.45,113.77,322.5,119.35Z" style="fill:#f7a9a0"></path><path d="M313.24,124.83s0,0,0,.08c-.2.7-.31,1.53.27,1.92,0,0,0,0,0,0C312.78,126.57,312.94,125.46,313.24,124.83Z" style="fill:#263238"></path><path d="M314.05,124.25c1.16.2.68,2.5-.39,2.31S313.08,124.09,314.05,124.25Z" style="fill:#263238"></path><path d="M309,124.16s-.06,0-.06,0c-.11.72-.36,1.52-1.05,1.64,0,0,0,0,0,0C308.7,125.93,309,124.85,309,124.16Z" style="fill:#263238"></path><path d="M308.52,123.29c-1.13-.3-1.66,2-.61,2.26S309.47,123.55,308.52,123.29Z" style="fill:#263238"></path><path d="M315.49,122.47a8.83,8.83,0,0,1-.9-.35,1.59,1.59,0,0,1-.85-.53.49.49,0,0,1,.1-.6,1.22,1.22,0,0,1,1.24-.09,1.77,1.77,0,0,1,1,.82A.53.53,0,0,1,315.49,122.47Z" style="fill:#263238"></path><path d="M308.07,121.25c.33,0,.64,0,1,0a1.54,1.54,0,0,0,1-.23.49.49,0,0,0,.1-.6,1.22,1.22,0,0,0-1.15-.47,1.77,1.77,0,0,0-1.22.44A.53.53,0,0,0,308.07,121.25Z" style="fill:#263238"></path><path d="M312.58,131.65c-.21.13-.43.33-.69.29a1.88,1.88,0,0,1-.73-.34,0,0,0,0,0,0,0,1,1,0,0,0,.82.58.77.77,0,0,0,.69-.51S312.61,131.63,312.58,131.65Z" style="fill:#263238"></path><path d="M312.28,129.37a2.5,2.5,0,0,1-1.85.73,2.88,2.88,0,0,1-.87-.14l-.17-.05-.15-.06a.19.19,0,0,1-.11-.19h0s0,0,0-.07h0v-.06c.1-.55.33-1.37.33-1.37-.22,0-1.34.3-1.26,0a37.85,37.85,0,0,1,2.47-7.13.07.07,0,0,1,.13,0c-.52,2.27-1.44,4.44-2,6.71a4.4,4.4,0,0,1,1.22-.11c.07,0-.47,1.58-.5,1.83v0a3.43,3.43,0,0,0,2.67-.25C312.28,129.26,312.33,129.32,312.28,129.37Z" style="fill:#263238"></path><path d="M309.94,129.75a2.83,2.83,0,0,0,1,1.13,1.36,1.36,0,0,0,.77.22c.6,0,.73-.55.72-1a3,3,0,0,0-.12-.73A3.77,3.77,0,0,1,309.94,129.75Z" style="fill:#263238"></path><path d="M310.9,130.88a1.36,1.36,0,0,0,.77.22c.6,0,.73-.55.72-1A1.37,1.37,0,0,0,310.9,130.88Z" style="fill:#ff97b8"></path><path d="M321.58,127.07c-.65-.32-1.58-3.15-2-4.29s.7-6.2,1-7.33a7.74,7.74,0,0,1,2,3.83C322.87,121,322.43,124,321.58,127.07Z" style="fill:#263238;opacity:0.2"></path><path d="M310.81,116.91a3.74,3.74,0,0,0,2.93,2.1,3.78,3.78,0,0,0,3.4-1.41s.07,0,.05,0a3.73,3.73,0,0,1-3.47,1.67,3.81,3.81,0,0,1-3-2.36C310.71,116.89,310.79,116.85,310.81,116.91Z" style="fill:#263238"></path><path d="M316.92,109.1a5.84,5.84,0,0,1,4,3.89,4.14,4.14,0,0,1-.32,2.72s-.09,0-.07,0a4.57,4.57,0,0,0-1-4.54,5.88,5.88,0,0,0-4.85-2,3.7,3.7,0,0,0-2.35,1c-.06.06-.2,0-.15-.1C313.11,109,315.05,108.55,316.92,109.1Z" style="fill:#263238"></path><path d="M303.67,110.31a4.8,4.8,0,0,1,2.62-1.93,6.55,6.55,0,0,1,4.27.6s0,.08,0,.06a6.6,6.6,0,0,0-3.68-.57,4.69,4.69,0,0,0-2.67,1.62,4.53,4.53,0,0,0,.33,5.92,4.62,4.62,0,0,0,3.41,1.32c.05,0,.06.07,0,.07a4.63,4.63,0,0,1-4.27-7.09Z" style="fill:#263238"></path><path d="M322.67,121.52s3-3.17,1.89-5.76c-.61-1.47-3.74-2.14-3.74-2.14a5.79,5.79,0,0,0-2.93-3.32c-2.43-1.28-5.91-.6-5.91-.6a5.36,5.36,0,0,0-4.74-1.36c-3.7,1-4.61,6-1.8,8.41,2,1.71,5.59.53,5.59.53.29.12,2.83,2.76,5.85.67,0,0,1.42,2.15,3.41,1.44A2.8,2.8,0,0,0,322.67,121.52Z" style="fill:#263238"></path><path d="M319.29,127.69s2.83-3.09,4.26-2-1,5.75-2.9,6.19a1.87,1.87,0,0,1-2.34-1.32Z" style="fill:#f7a9a0"></path><path d="M322.82,127s0,0,0,0a4.7,4.7,0,0,0-2.79,2.6,1,1,0,0,1,1.56-.08s0,.08,0,.07a1.14,1.14,0,0,0-1.3.23,5.08,5.08,0,0,0-.73.93c-.08.1-.27,0-.21-.11v0C319.5,129,321.06,126.92,322.82,127Z" style="fill:#263238"></path><path d="M320.36,141.93a46,46,0,0,1-3.48,4.13,7.93,7.93,0,0,1-4.33,2.51c-1.64.22-3.29,0-4-2a12.29,12.29,0,0,1-.34-5.26.06.06,0,1,0-.12,0c-.26,2.64-.48,6.72,1.94,7.53,2.71.9,5.27-.58,7.06-2.5a24.05,24.05,0,0,0,3.3-4.33A0,0,0,0,0,320.36,141.93Z" style="fill:#263238"></path></g><g id="freepik--speech-bubble--inject-129"><path d="M105.82,149.8A30.65,30.65,0,0,0,157,169.19l15.33,2.25-7.67-13.26a30.35,30.35,0,0,0,2.1-14.76,30.66,30.66,0,1,0-61,6.38Z" style="fill:#fff"></path><path d="M115,124.48a31,31,0,0,1,50.25,33.93l0-.53,7.63,13.29.57,1-1.12-.18L157,169.62l.37-.11A31,31,0,0,1,142.17,177a26.28,26.28,0,0,1-4.24.44,30.3,30.3,0,0,1-4.26-.08,30.76,30.76,0,0,1-8.25-2,30.13,30.13,0,0,1-7.4-4.12,28.16,28.16,0,0,1-6-5.93,30.83,30.83,0,0,1,3-40.86Zm-2.9,40.79a34.82,34.82,0,0,0,2.79,3.16,34.47,34.47,0,0,0,3.23,2.7,28.48,28.48,0,0,0,7.4,4,29.87,29.87,0,0,0,8.19,1.8,29.3,29.3,0,0,0,4.19,0,26.41,26.41,0,0,0,4.16-.51,30.15,30.15,0,0,0,14.68-7.56l.15-.14.21,0,15.35,2.15-.55.81-7.72-13.23-.14-.25.11-.28a30.75,30.75,0,0,0,2.16-13.35,30.34,30.34,0,0,0-3.89-13,31.61,31.61,0,0,0-9.18-10,30.14,30.14,0,0,0-12.66-5,30.56,30.56,0,0,0-13.63,1,30.3,30.3,0,0,0-14.85,47.62Z" style="fill:#263238"></path><path d="M119.22,147.54a3.71,3.71,0,1,0,3.71-3.71A3.71,3.71,0,0,0,119.22,147.54Z" style="fill:#263238"></path><path d="M132.52,147.54a3.71,3.71,0,1,0,3.71-3.71A3.71,3.71,0,0,0,132.52,147.54Z" style="fill:#263238"></path><path d="M145.82,147.54a3.71,3.71,0,1,0,3.71-3.71A3.71,3.71,0,0,0,145.82,147.54Z" style="fill:#263238"></path></g></svg>